<svg width="26" height="25" viewBox="0 0 26 25" fill="none" xmlns="http://www.w3.org/2000/svg">
<path fill-rule="evenodd" clip-rule="evenodd" d="M12.4332 24.6826V18.712C12.4332 18.6477 12.3583 18.6112 12.305 18.6496C9.25486 20.8468 5.78347 22.8501 1.96612 24.6122C1.88893 24.6481 1.91513 24.7607 2.00074 24.7607H12.3527C12.3972 24.7607 12.4332 24.7255 12.4332 24.6826Z" fill="#6131B4"/>
<path fill-rule="evenodd" clip-rule="evenodd" d="M24.7896 0.884074C24.8273 0.832288 24.7889 0.760742 24.7239 0.760742H9.00097C4.41267 0.760742 0.692871 4.34282 0.692871 8.76141V16.2515C0.692871 16.3051 0.747137 16.3428 0.799298 16.3255C11.5248 12.818 20.0649 7.34548 24.7896 0.884074Z" fill="#6131B4"/>
<path fill-rule="evenodd" clip-rule="evenodd" d="M16.7583 15.2253V24.6826C16.7583 24.7255 16.7943 24.7605 16.8388 24.7605H17.1012C21.6893 24.7605 25.4088 21.1787 25.4088 16.7601V2.96438C25.4088 2.87648 25.2823 2.85558 25.2526 2.93871C23.6992 7.29825 20.7892 11.4393 16.7829 15.1692C16.7672 15.1838 16.7583 15.204 16.7583 15.2253Z" fill="#6131B4"/>
</svg>
