<svg width="102" height="20" viewBox="0 0 102 20" fill="none" xmlns="http://www.w3.org/2000/svg">
<path fill-rule="evenodd" clip-rule="evenodd" d="M26.2494 8.12125H32.1268V16.5109H32.1695C34.4903 16.5109 36.3719 14.6864 36.3719 12.4355V8.12125H42.4127V4.63794H26.2494V8.12125Z" fill="#1F073B"/>
<path fill-rule="evenodd" clip-rule="evenodd" d="M54.3885 13.0294H50.3488C48.9399 13.0294 47.7224 11.9818 47.6566 10.6168C47.5867 9.16539 48.7841 7.96263 50.2661 7.96263H54.3056C55.7145 7.96263 56.9322 9.01039 56.9978 10.3752C57.0677 11.827 55.8701 13.0294 54.3885 13.0294ZM55.3868 4.47949H49.2679C45.8556 4.47949 43.0638 7.18692 43.0638 10.496C43.0638 13.8051 45.8556 16.5127 49.2679 16.5127H55.3868C58.799 16.5127 61.5909 13.8051 61.5909 10.496C61.5909 7.18692 58.799 4.47949 55.3868 4.47949Z" fill="#1F073B"/>
<path fill-rule="evenodd" clip-rule="evenodd" d="M94.4148 13.0294H90.3752C88.9662 13.0294 87.7486 11.9818 87.6828 10.6168C87.6129 9.16539 88.8105 7.96263 90.2923 7.96263H94.3319C95.7407 7.96263 96.9585 9.01039 97.0242 10.3752C97.0941 11.827 95.8965 13.0294 94.4148 13.0294ZM95.413 4.47949H89.294C85.8818 4.47949 83.09 7.18692 83.09 10.496C83.09 13.8051 85.8818 16.5127 89.294 16.5127H95.413C98.8252 16.5127 101.617 13.8051 101.617 10.496C101.617 7.18692 98.8252 4.47949 95.413 4.47949Z" fill="#1F073B"/>
<path fill-rule="evenodd" clip-rule="evenodd" d="M76.2688 8.9242C76.2688 9.52747 75.7597 10.0214 75.1373 10.0214H69.4109V7.80488H75.1373C75.7597 7.80488 76.2688 8.29864 76.2688 8.90227V8.9242ZM80.568 9.10436C80.568 7.9194 80.0687 6.84269 79.2623 6.06033C78.4572 5.27976 77.3468 4.79553 76.1251 4.79553H64.6767V11.4869V13.5043V16.3538H69.2477V13.5043H74.0804L75.7758 16.3538H80.568L78.5123 12.7331C79.7455 11.965 80.568 10.6232 80.568 9.10436Z" fill="#1F073B"/>
<path fill-rule="evenodd" clip-rule="evenodd" d="M9.92334 19.9342V15.2075C9.92334 15.1566 9.86401 15.1276 9.82174 15.158C7.40393 16.8975 4.6522 18.4835 1.62624 19.8784C1.56505 19.9068 1.58582 19.996 1.65368 19.996H9.85956C9.89479 19.996 9.92334 19.9682 9.92334 19.9342Z" fill="#6131B4"/>
<path fill-rule="evenodd" clip-rule="evenodd" d="M19.7182 1.09373C19.7481 1.05273 19.7176 0.996094 19.6661 0.996094H7.20274C3.56565 0.996094 0.617004 3.8319 0.617004 7.32996V13.2596C0.617004 13.302 0.660021 13.3319 0.701368 13.3182C9.20336 10.5414 15.973 6.20901 19.7182 1.09373Z" fill="#6131B4"/>
<path fill-rule="evenodd" clip-rule="evenodd" d="M13.3519 12.4473V19.9343C13.3519 19.9683 13.3804 19.996 13.4157 19.996H13.6237C17.2606 19.996 20.209 17.1603 20.209 13.6623V2.7407C20.209 2.67111 20.1087 2.65457 20.0852 2.72038C18.8539 6.17168 16.5471 9.45001 13.3713 12.4029C13.3589 12.4144 13.3519 12.4304 13.3519 12.4473Z" fill="#6131B4"/>
</svg>
