<svg width="96" height="17" viewBox="0 0 96 17" fill="none" xmlns="http://www.w3.org/2000/svg">
<path d="M95.7725 7.87723C95.7725 8.42406 95.7725 9.00994 95.6162 9.43959C95.1866 9.28335 94.7569 9.28335 94.2101 9.28335C93.7805 9.28335 93.3508 9.43959 92.9212 9.43959C92.9212 16.4702 92.9212 16.4702 92.9212 16.4702C91.0854 16.4702 91.0854 16.4702 91.0854 16.4702C91.0854 8.30688 91.0854 8.30688 91.0854 8.30688C91.7885 8.03347 93.1946 7.76005 94.171 7.76005C94.796 7.76005 95.3428 7.76005 95.7725 7.87723ZM83.508 11.4316C87.7263 11.4316 87.7263 11.4316 87.7263 11.4316C87.7263 10.1817 86.867 9.32241 85.6171 9.32241C84.3673 9.32241 83.6642 10.0255 83.508 11.4316ZM89.4449 12.9549C83.6642 12.9549 83.6642 12.9549 83.6642 12.9549C83.8204 14.5172 84.6407 15.2203 86.3593 15.2203C87.3357 15.2203 88.3122 14.9469 89.3277 14.5172C89.1715 15.0641 89.0543 15.65 89.0543 16.1968C88.195 16.6264 87.2186 16.7436 86.3593 16.7436C83.2736 16.7436 81.7113 15.0641 81.7113 12.2518C81.7113 9.713 82.9611 7.76005 85.8124 7.76005C88.5075 7.76005 89.6012 9.43959 89.6012 11.5488C89.5621 12.1347 89.4449 12.5252 89.4449 12.9549ZM78.4303 14.6735C78.4303 9.47865 78.4303 9.47865 78.4303 9.47865C78.0007 9.47865 77.4538 9.32241 77.0242 9.32241C75.1884 9.32241 74.3291 10.4551 74.3291 12.4081C74.3291 14.0876 75.0322 15.2203 76.5945 15.2203C77.2976 15.2203 77.8835 14.9469 78.4303 14.6735ZM80.2661 4.94781C80.2661 16.5093 80.2661 16.5093 80.2661 16.5093C78.5865 16.5093 78.5865 16.5093 78.5865 16.5093C78.4303 15.5328 78.4303 15.5328 78.4303 15.5328C78.0007 16.2358 77.2976 16.7827 76.0477 16.7827C73.9385 16.7827 72.5324 15.1031 72.5324 12.4081C72.5324 9.43959 74.0948 7.76005 77.0242 7.76005C77.571 7.76005 78.0007 7.91629 78.4303 7.91629C78.4303 5.22122 78.4303 5.22122 78.4303 5.22122C79.0162 4.94781 79.7192 4.94781 80.2661 4.94781ZM70.97 11.0019C70.97 16.5093 70.97 16.5093 70.97 16.5093C69.1343 16.5093 69.1343 16.5093 69.1343 16.5093C69.1343 11.3144 69.1343 11.3144 69.1343 11.3144C69.1343 10.0645 68.7046 9.36147 66.8689 9.36147C66.4392 9.36147 66.0096 9.5177 65.4627 9.5177C65.4627 16.5483 65.4627 16.5483 65.4627 16.5483C63.627 16.5483 63.627 16.5483 63.627 16.5483C63.627 8.385 63.627 8.38499 63.627 8.38499C64.7597 8.11158 66.0096 7.83817 67.0251 7.83817C69.9936 7.76005 70.97 9.00994 70.97 11.0019ZM59.8383 14.6735C59.8383 9.47865 59.8383 9.47865 59.8383 9.47865C59.4086 9.47865 58.979 9.32241 58.5884 9.32241C56.5964 9.32241 55.7761 10.5723 55.7761 12.4081C55.7761 14.0876 56.4792 15.2203 58.0415 15.2203C58.7056 15.2203 59.4086 15.0641 59.8383 14.6735ZM61.674 8.30688C61.674 16.4702 61.674 16.4702 61.674 16.4702C59.9945 16.4702 59.9945 16.4702 59.9945 16.4702C59.8383 15.4937 59.8383 15.4937 59.8383 15.4937C59.4086 16.1968 58.7055 16.7436 57.5728 16.7436C55.3074 16.7436 53.9013 15.0641 53.9013 12.369C53.9013 9.40053 55.4637 7.72099 58.5493 7.72099C59.7211 7.76005 60.6976 7.87723 61.674 8.30688ZM51.8312 15.2203C52.378 15.2203 52.9639 15.0641 53.3935 14.9469C53.2373 15.3765 53.2373 15.9234 53.1201 16.5093C52.6905 16.6655 52.1437 16.7827 51.5578 16.7827C49.8782 16.7827 48.7455 15.9234 48.7455 13.9704C48.7455 5.22122 48.7455 5.22122 48.7455 5.22122C49.2924 5.06499 49.8782 4.94781 50.4251 4.94781C50.4251 8.03347 50.4251 8.03347 50.4251 8.03347C53.3935 8.03347 53.3935 8.03347 53.3935 8.03347C53.3935 8.58029 53.2373 9.16617 53.2373 9.59582C50.4251 9.59582 50.4251 9.59582 50.4251 9.59582C50.4251 13.697 50.4251 13.697 50.4251 13.697C50.4251 14.7907 50.9719 15.2203 51.8312 15.2203ZM46.8707 11.0019C46.8707 16.5093 46.8707 16.5093 46.8707 16.5093C45.0349 16.5093 45.0349 16.5093 45.0349 16.5093C45.0349 11.3144 45.0349 11.3144 45.0349 11.3144C45.0349 10.0645 44.6053 9.36147 42.7695 9.36147C42.3399 9.36147 41.793 9.5177 41.2072 9.5177C41.2072 16.5483 41.2072 16.5483 41.2072 16.5483C39.3714 16.5483 39.3714 16.5483 39.3714 16.5483C39.3714 8.385 39.3714 8.38499 39.3714 8.38499C40.6213 8.11158 41.9102 7.83817 42.7695 7.83817C45.8942 7.76005 46.8707 9.00994 46.8707 11.0019ZM35.6217 14.6735C35.6217 9.47865 35.6217 9.47865 35.6217 9.47865C35.3483 9.47865 34.9187 9.32241 34.3718 9.32241C32.5361 9.32241 31.5596 10.5723 31.5596 12.4081C31.5596 14.0876 32.2627 15.2203 33.9422 15.2203C34.6453 15.2203 35.1921 15.0641 35.6217 14.6735ZM37.4575 8.30688C37.4575 16.4702 37.4575 16.4702 37.4575 16.4702C35.778 16.4702 35.778 16.4702 35.778 16.4702C35.778 15.4937 35.778 15.4937 35.778 15.4937C35.2311 16.1968 34.5281 16.7436 33.3954 16.7436C31.2862 16.7436 29.7238 15.0641 29.7238 12.369C29.7238 9.40053 31.2862 7.72099 34.3718 7.72099C35.6217 7.76005 36.5982 7.87723 37.4575 8.30688ZM20.9746 16.1968C20.9746 15.4937 21.1309 15.0641 21.2481 14.5172C22.2245 14.9469 23.3572 15.0641 24.3337 15.0641C25.8961 15.0641 26.7163 14.6344 26.7163 13.6579C26.7163 12.6815 26.0132 12.2518 24.4509 11.5488C23.6306 11.2754 23.6306 11.2754 23.6306 11.2754C22.0683 10.5723 21.0918 9.713 21.0918 7.87723C21.0918 6.04146 22.3417 4.79158 25.0368 4.79158C26.1695 4.79158 27.1459 4.94781 28.0052 5.22122C28.0052 5.92428 27.849 6.47111 27.7318 6.90076C26.8725 6.62735 25.7789 6.47111 25.0368 6.47111C23.6306 6.47111 22.9276 7.01793 22.9276 7.87723C22.9276 8.73653 23.4744 9.28335 24.7634 9.713C25.6226 10.1426 25.6226 10.1426 25.6226 10.1426C27.7318 11.0019 28.5911 11.9784 28.5911 13.5408C28.5911 15.4937 27.185 16.7827 24.3728 16.7827C22.9276 16.7827 21.7949 16.6264 20.9746 16.1968ZM12.6551 8.03347C12.4989 7.33041 12.3817 6.78358 12.1083 6.1977C9.29602 1.39345 9.29602 1.39345 9.29602 1.39345C9.13979 1.12004 9.02261 0.69039 8.86637 0.260742C8.86637 0.534155 8.86637 0.534153 8.86637 0.534153C8.16331 1.66686 8.16331 3.07298 8.86637 4.32287C10.9756 8.11158 10.9756 8.11158 10.9756 8.11158C11.6786 9.24429 11.6786 10.8066 10.9756 11.9003C10.8193 12.1737 10.8193 12.1737 10.8193 12.1737C10.8193 11.7441 10.6631 11.3144 10.3897 10.9238C8.43672 7.40852 8.43672 7.40852 8.43672 7.40852C7.18684 5.29934 7.18684 5.29934 7.18684 5.29934C6.91343 4.86969 6.75719 4.44004 6.75719 4.04946C6.60096 4.32287 6.60096 4.32287 6.60096 4.32287C5.8979 5.45558 5.8979 6.8617 6.60096 8.11158C8.86637 11.9003 8.86637 11.9003 8.86637 11.9003C9.4132 13.1502 9.4132 14.5954 8.86637 15.689C8.71014 15.9624 8.71014 15.9624 8.71014 15.9624C8.5539 15.5328 8.43673 15.1031 8.28049 14.8297C5.46825 10.0255 5.46825 10.0255 5.46825 10.0255C5.0386 9.32241 4.92142 8.61935 4.92142 7.91629C1.95295 8.61935 0 10.2989 0 12.1347C0 14.8297 3.94495 16.9389 8.86637 16.9389C13.6706 16.9389 17.6156 14.8297 17.6156 12.1347C17.5765 10.4161 15.6236 8.73653 12.6551 8.03347Z" fill="#F02733"/>
</svg>
