<svg width="309" height="261" viewBox="0 0 309 261" fill="none" xmlns="http://www.w3.org/2000/svg">
<path d="M9.14062 136.979H260.287M9.14062 69.8643H260.287M9.14062 2.74988H260.287" stroke="url(#paint0_linear_1_2131)" stroke-width="0.561579"/>
<path d="M8.73831 137.089C9.74761 133.754 13.3966 127.507 19.9182 127.085C28.0703 126.559 37.6198 124.979 44.3743 105.499C48.3339 94.9695 52.8629 85.0933 54.6226 80.7542C58.1163 72.1389 65.5696 62.3271 70.9266 86.0191C76.8949 112.414 73.0229 162.36 78.147 164.466C79.0502 164.837 79.7589 164.272 80.3702 163.131C81.7961 160.12 82.7287 154.014 84.4938 149.77C85.4144 147.417 86.5672 145.563 88.1623 144.986C98.6435 141.195 98.1777 130.142 102.836 116.556C110.056 95.496 117.51 66.539 127.525 67.0655C137.54 67.592 137.307 84.9661 141.733 80.7542C146.158 76.5423 145.459 54.4298 157.571 52.8503C169.683 51.2708 172.71 37.5821 173.875 34.4232C175.04 31.2642 182.034 14.595 187.151 34.4232C189.461 43.3735 190.412 52.8503 195.769 52.8503C201.126 52.8503 202.492 25.4729 210.21 25.4728C220.691 25.4727 220.835 -0.668878 231.405 1.25434C240.954 2.9919 243.517 44.953 260.054 44.953L260.287 47.4282C242.729 49.4654 238.392 5.96779 231.172 4.19291C221.855 1.90273 222.321 27.6473 211.141 27.6473C203.423 27.6473 202.919 55.0579 196.002 55.0579C189.085 55.0579 188.508 45.3657 186.219 36.4074C181.455 17.7569 176.212 32.4048 175.04 35.5597C173.868 38.7145 170.618 52.6573 158.503 54.1946C146.387 55.7318 148.021 77.6646 141.738 82.4753C136.981 86.1169 135.91 68.7371 127.562 68.7371C117.538 68.7371 110.026 96.5414 102.756 117.576C98.0658 131.146 98.5055 141.636 88.0154 145.39C86.5085 145.929 85.3931 147.608 84.4938 149.77C82.7654 154.186 81.8549 160.359 80.3702 163.131C79.7129 164.519 78.9508 165.248 77.954 164.835C72.8348 162.711 76.825 112.779 70.9193 86.3631C65.6183 62.6526 58.1419 72.4384 54.6278 81.0414C52.8579 85.3744 48.3054 95.2347 44.321 105.751C37.5204 125.207 27.9671 126.753 19.8139 127.251C13.2913 127.65 9.62754 134.45 8.61035 137.781L8.73831 137.089Z" fill="#6131B4" stroke="#6131B4" stroke-width="1.12316" stroke-linecap="round" stroke-linejoin="round"/>
<path d="M8.61023 137.552C11.6389 134.402 15.3665 132.063 19.793 131.778C24.2195 131.493 30.2768 130.203 37.2661 126.529C42.9343 123.549 46.1191 116.031 50.7786 111.832C57.5537 105.726 67.3198 110.257 70.8144 129.153C75.8594 156.433 72.4452 175.869 77.5707 177.969C81.837 179.716 81.2982 162.222 87.3556 162.222C101.92 162.222 98.0015 135.308 105.295 140.176C111.585 144.375 113.216 130.728 122.768 129.678C124.397 129.499 131.802 128.628 136.979 137.027C142.156 145.425 143.287 137.027 146.298 133.877C149.544 128.37 150.191 148.575 152.355 140.176C155.737 127.054 163.771 108.682 173.556 105.008C182.289 101.729 182.627 114.227 190.097 116.031C196.621 117.606 200.814 105.008 206.173 105.008C211.531 105.008 210.133 112.881 218.52 97.6594C222.481 90.4714 227.373 89.7859 239.954 99.2341C243.622 101.989 255.563 112.881 259.757 119.705" stroke="#5B6067" stroke-width="1.12316" stroke-linecap="round" stroke-linejoin="round"/>
<ellipse cx="261.944" cy="46.1157" rx="3.68222" ry="3.69981" fill="#6131B4"/>
<ellipse opacity="0.3" cx="261.945" cy="46.1159" rx="6.31238" ry="6.34254" fill="#6131B4"/>
<ellipse opacity="0.1" cx="261.945" cy="46.116" rx="8.94253" ry="8.98526" fill="#6131B4"/>
<ellipse cx="261.032" cy="122.312" rx="2.76167" ry="2.77486" fill="#5B6067"/>
<ellipse opacity="0.3" cx="261.033" cy="122.312" rx="4.73428" ry="4.7569" fill="#5B6067"/>
<ellipse opacity="0.1" cx="261.033" cy="122.312" rx="6.7069" ry="6.73895" fill="#5B6067"/>
<path d="M37.8409 238.487H36.7729L34.8289 234.695H32.7769V238.487H31.8649V229.943H35.1409C36.6289 229.943 37.6729 230.843 37.6729 232.319C37.6729 233.567 36.9169 234.383 35.8129 234.611L37.8409 238.487ZM36.7609 232.331C36.7609 231.287 36.0529 230.759 35.0569 230.759H32.7769V233.891H35.0569C36.0529 233.891 36.7609 233.375 36.7609 232.331ZM43.7446 235.763H39.7606C39.7606 237.059 40.3606 237.803 41.5006 237.803C42.1846 237.803 42.5806 237.599 43.0486 237.131L43.6366 237.647C43.0366 238.247 42.4726 238.559 41.4766 238.559C39.9046 238.559 38.8966 237.623 38.8966 235.535C38.8966 233.615 39.8206 232.511 41.3206 232.511C42.8566 232.511 43.7446 233.603 43.7446 235.379V235.763ZM42.8926 235.115C42.8566 234.635 42.8446 234.443 42.7006 234.131C42.4486 233.591 41.9566 233.243 41.3206 233.243C40.6846 233.243 40.1926 233.591 39.9406 234.131C39.7966 234.443 39.7846 234.635 39.7606 235.115H42.8926ZM50.2279 238.487H49.3639V234.851C49.3639 233.807 48.7999 233.279 47.9119 233.279C47.0239 233.279 46.4479 233.819 46.4479 234.851V238.487H45.5839V232.583H46.4479V233.231C46.8679 232.751 47.4439 232.511 48.1039 232.511C48.7399 232.511 49.2559 232.703 49.6159 233.063C50.0359 233.471 50.2279 234.023 50.2279 234.707V238.487ZM54.5902 238.487H53.9782C52.9702 238.487 52.4662 237.779 52.4662 236.903V233.243H51.7222V232.583H52.4662V230.771H53.3302V232.583H54.5902V233.243H53.3302V236.879C53.3302 237.419 53.5822 237.743 54.1342 237.743H54.5902V238.487ZM60.46 238.487H59.596V237.923C59.128 238.391 58.684 238.559 57.892 238.559C57.076 238.559 56.632 238.415 56.224 238.019C55.924 237.731 55.78 237.287 55.78 236.819C55.78 235.775 56.512 235.115 57.832 235.115H59.596V234.551C59.596 233.699 59.176 233.255 58.084 233.255C57.34 233.255 56.956 233.447 56.596 233.939L56.008 233.399C56.524 232.715 57.124 232.511 58.096 232.511C59.692 232.511 60.46 233.207 60.46 234.479V238.487ZM59.596 236.399V235.763H57.952C57.064 235.763 56.62 236.111 56.62 236.807C56.62 237.491 57.04 237.815 57.988 237.815C58.48 237.815 58.912 237.767 59.296 237.419C59.5 237.227 59.596 236.891 59.596 236.399ZM67.2564 235.535C67.2564 236.483 67.1244 237.443 66.5364 238.043C66.2244 238.355 65.7084 238.559 65.0964 238.559C64.4364 238.559 63.9204 238.403 63.4284 237.779V238.487H62.5644V229.943H63.4284V233.267C63.9204 232.655 64.4484 232.511 65.0964 232.511C65.7084 232.511 66.2244 232.715 66.5364 233.027C67.1244 233.615 67.2564 234.587 67.2564 235.535ZM66.3924 235.535C66.3924 234.383 66.2004 233.279 64.9164 233.279C63.6204 233.279 63.4284 234.383 63.4284 235.535C63.4284 236.687 63.6204 237.791 64.9164 237.791C66.2004 237.791 66.3924 236.687 66.3924 235.535ZM69.9674 238.487H69.1034V232.583H69.9674V238.487ZM70.0274 230.903H69.0554V229.931H70.0274V230.903ZM74.2269 238.487H73.6029C72.5709 238.487 72.1029 237.815 72.1029 236.915V229.943H72.9669V236.879C72.9669 237.455 73.1589 237.743 73.7589 237.743H74.2269V238.487ZM76.5182 238.487H75.6542V232.583H76.5182V238.487ZM76.5782 230.903H75.6062V229.931H76.5782V230.903ZM83.0576 238.487H82.2056V237.779C81.7136 238.403 81.1976 238.559 80.5256 238.559C79.9136 238.559 79.3976 238.355 79.0856 238.043C78.4976 237.443 78.3656 236.483 78.3656 235.535C78.3656 234.587 78.4976 233.615 79.0856 233.027C79.3976 232.715 79.9136 232.511 80.5256 232.511C81.1856 232.511 81.7016 232.655 82.1936 233.267V229.943H83.0576V238.487ZM82.1936 235.535C82.1936 234.383 82.0016 233.279 80.7176 233.279C79.4216 233.279 79.2296 234.383 79.2296 235.535C79.2296 236.687 79.4216 237.791 80.7176 237.791C82.0016 237.791 82.1936 236.687 82.1936 235.535ZM89.4287 238.487H88.5647V237.923C88.0967 238.391 87.6527 238.559 86.8607 238.559C86.0447 238.559 85.6007 238.415 85.1927 238.019C84.8927 237.731 84.7487 237.287 84.7487 236.819C84.7487 235.775 85.4807 235.115 86.8007 235.115H88.5647V234.551C88.5647 233.699 88.1447 233.255 87.0527 233.255C86.3087 233.255 85.9247 233.447 85.5647 233.939L84.9767 233.399C85.4927 232.715 86.0927 232.511 87.0647 232.511C88.6607 232.511 89.4287 233.207 89.4287 234.479V238.487ZM88.5647 236.399V235.763H86.9207C86.0327 235.763 85.5887 236.111 85.5887 236.807C85.5887 237.491 86.0087 237.815 86.9567 237.815C87.4487 237.815 87.8807 237.767 88.2647 237.419C88.4687 237.227 88.5647 236.891 88.5647 236.399ZM95.9131 238.487H95.0611V237.779C94.5691 238.403 94.0531 238.559 93.3811 238.559C92.7691 238.559 92.2531 238.355 91.9411 238.043C91.3531 237.443 91.2211 236.483 91.2211 235.535C91.2211 234.587 91.3531 233.615 91.9411 233.027C92.2531 232.715 92.7691 232.511 93.3811 232.511C94.0411 232.511 94.5571 232.655 95.0491 233.267V229.943H95.9131V238.487ZM95.0491 235.535C95.0491 234.383 94.8571 233.279 93.5731 233.279C92.2771 233.279 92.0851 234.383 92.0851 235.535C92.0851 236.687 92.2771 237.791 93.5731 237.791C94.8571 237.791 95.0491 236.687 95.0491 235.535ZM102.596 235.763H98.6122C98.6122 237.059 99.2122 237.803 100.352 237.803C101.036 237.803 101.432 237.599 101.9 237.131L102.488 237.647C101.888 238.247 101.324 238.559 100.328 238.559C98.7562 238.559 97.7482 237.623 97.7482 235.535C97.7482 233.615 98.6722 232.511 100.172 232.511C101.708 232.511 102.596 233.603 102.596 235.379V235.763ZM101.744 235.115C101.708 234.635 101.696 234.443 101.552 234.131C101.3 233.591 100.808 233.243 100.172 233.243C99.5362 233.243 99.0442 233.591 98.7922 234.131C98.6482 234.443 98.6362 234.635 98.6122 235.115H101.744ZM111.804 238.487H110.952V237.779C110.46 238.403 109.944 238.559 109.272 238.559C108.66 238.559 108.144 238.355 107.832 238.043C107.244 237.443 107.112 236.483 107.112 235.535C107.112 234.587 107.244 233.615 107.832 233.027C108.144 232.715 108.66 232.511 109.272 232.511C109.932 232.511 110.448 232.655 110.94 233.267V229.943H111.804V238.487ZM110.94 235.535C110.94 234.383 110.748 233.279 109.464 233.279C108.168 233.279 107.976 234.383 107.976 235.535C107.976 236.687 108.168 237.791 109.464 237.791C110.748 237.791 110.94 236.687 110.94 235.535ZM118.175 238.487H117.311V237.923C116.843 238.391 116.399 238.559 115.607 238.559C114.791 238.559 114.347 238.415 113.939 238.019C113.639 237.731 113.495 237.287 113.495 236.819C113.495 235.775 114.227 235.115 115.547 235.115H117.311V234.551C117.311 233.699 116.891 233.255 115.799 233.255C115.055 233.255 114.671 233.447 114.311 233.939L113.723 233.399C114.239 232.715 114.839 232.511 115.811 232.511C117.407 232.511 118.175 233.207 118.175 234.479V238.487ZM117.311 236.399V235.763H115.667C114.779 235.763 114.335 236.111 114.335 236.807C114.335 237.491 114.755 237.815 115.703 237.815C116.195 237.815 116.627 237.767 117.011 237.419C117.215 237.227 117.311 236.891 117.311 236.399ZM127.503 237.683C126.891 238.343 126.375 238.559 125.559 238.559C124.071 238.559 122.943 237.551 122.943 235.535C122.943 233.519 124.071 232.511 125.559 232.511C126.375 232.511 126.891 232.727 127.503 233.387L126.915 233.939C126.471 233.447 126.123 233.279 125.559 233.279C124.983 233.279 124.503 233.507 124.191 233.951C123.915 234.335 123.807 234.791 123.807 235.535C123.807 236.279 123.915 236.735 124.191 237.119C124.503 237.563 124.983 237.791 125.559 237.791C126.123 237.791 126.471 237.611 126.915 237.119L127.503 237.683ZM133.304 238.487H132.44V237.923C131.972 238.391 131.528 238.559 130.736 238.559C129.92 238.559 129.476 238.415 129.068 238.019C128.768 237.731 128.624 237.287 128.624 236.819C128.624 235.775 129.356 235.115 130.676 235.115H132.44V234.551C132.44 233.699 132.02 233.255 130.928 233.255C130.184 233.255 129.8 233.447 129.44 233.939L128.852 233.399C129.368 232.715 129.968 232.511 130.94 232.511C132.536 232.511 133.304 233.207 133.304 234.479V238.487ZM132.44 236.399V235.763H130.796C129.908 235.763 129.464 236.111 129.464 236.807C129.464 237.491 129.884 237.815 130.832 237.815C131.324 237.815 131.756 237.767 132.14 237.419C132.344 237.227 132.44 236.891 132.44 236.399ZM139.344 233.063L138.708 233.711C138.384 233.387 138.144 233.279 137.688 233.279C136.824 233.279 136.272 233.963 136.272 234.863V238.487H135.408V232.583H136.272V233.303C136.596 232.811 137.244 232.511 137.928 232.511C138.492 232.511 138.924 232.643 139.344 233.063ZM142.727 238.487H142.115C141.107 238.487 140.603 237.779 140.603 236.903V233.243H139.859V232.583H140.603V230.771H141.467V232.583H142.727V233.243H141.467V236.879C141.467 237.419 141.719 237.743 142.271 237.743H142.727V238.487ZM148.909 235.763H144.925C144.925 237.059 145.525 237.803 146.665 237.803C147.349 237.803 147.745 237.599 148.213 237.131L148.801 237.647C148.201 238.247 147.637 238.559 146.641 238.559C145.069 238.559 144.061 237.623 144.061 235.535C144.061 233.615 144.985 232.511 146.485 232.511C148.021 232.511 148.909 233.603 148.909 235.379V235.763ZM148.057 235.115C148.021 234.635 148.009 234.443 147.865 234.131C147.613 233.591 147.121 233.243 146.485 233.243C145.849 233.243 145.357 233.591 145.105 234.131C144.961 234.443 144.949 234.635 144.925 235.115H148.057ZM151.612 238.487H150.748V232.583H151.612V238.487ZM151.672 230.903H150.7V229.931H151.672V230.903ZM157.707 233.063L157.071 233.711C156.747 233.387 156.507 233.279 156.051 233.279C155.187 233.279 154.635 233.963 154.635 234.863V238.487H153.771V232.583H154.635V233.303C154.959 232.811 155.607 232.511 156.291 232.511C156.855 232.511 157.287 232.643 157.707 233.063ZM162.917 238.487H162.053V237.923C161.585 238.391 161.141 238.559 160.349 238.559C159.533 238.559 159.089 238.415 158.681 238.019C158.381 237.731 158.237 237.287 158.237 236.819C158.237 235.775 158.969 235.115 160.289 235.115H162.053V234.551C162.053 233.699 161.633 233.255 160.541 233.255C159.797 233.255 159.413 233.447 159.053 233.939L158.465 233.399C158.981 232.715 159.581 232.511 160.553 232.511C162.149 232.511 162.917 233.207 162.917 234.479V238.487ZM162.053 236.399V235.763H160.409C159.521 235.763 159.077 236.111 159.077 236.807C159.077 237.491 159.497 237.815 160.445 237.815C160.937 237.815 161.369 237.767 161.753 237.419C161.957 237.227 162.053 236.891 162.053 236.399ZM173.422 231.431H171.19V238.487H169.522V231.431H167.29V229.943H173.422V231.431ZM178.728 235.355C178.728 236.483 178.596 237.203 178.02 237.791C177.624 238.199 177 238.559 176.076 238.559C175.152 238.559 174.54 238.199 174.144 237.791C173.58 237.191 173.436 236.483 173.436 235.355C173.436 234.227 173.58 233.531 174.144 232.931C174.54 232.523 175.152 232.163 176.076 232.163C177 232.163 177.624 232.511 178.02 232.931C178.584 233.531 178.728 234.227 178.728 235.355ZM177.168 235.355C177.168 234.719 177.132 234.155 176.808 233.843C176.628 233.663 176.388 233.567 176.076 233.567C175.776 233.567 175.536 233.663 175.356 233.843C175.032 234.155 174.996 234.719 174.996 235.355C174.996 236.003 175.032 236.567 175.356 236.879C175.536 237.059 175.776 237.155 176.076 237.155C176.388 237.155 176.628 237.059 176.808 236.879C177.132 236.567 177.168 236.003 177.168 235.355ZM184.788 232.751L183.612 233.939C183.372 233.699 183.168 233.567 182.784 233.567C182.304 233.567 181.776 233.927 181.776 234.719V238.487H180.216V232.235H181.74V232.835C182.04 232.475 182.64 232.163 183.312 232.163C183.924 232.163 184.356 232.319 184.788 232.751ZM190.341 235.355C190.341 236.483 190.209 237.203 189.633 237.791C189.237 238.199 188.613 238.559 187.689 238.559C186.765 238.559 186.153 238.199 185.757 237.791C185.193 237.191 185.049 236.483 185.049 235.355C185.049 234.227 185.193 233.531 185.757 232.931C186.153 232.523 186.765 232.163 187.689 232.163C188.613 232.163 189.237 232.511 189.633 232.931C190.197 233.531 190.341 234.227 190.341 235.355ZM188.781 235.355C188.781 234.719 188.745 234.155 188.421 233.843C188.241 233.663 188.001 233.567 187.689 233.567C187.389 233.567 187.149 233.663 186.969 233.843C186.645 234.155 186.609 234.719 186.609 235.355C186.609 236.003 186.645 236.567 186.969 236.879C187.149 237.059 187.389 237.155 187.689 237.155C188.001 237.155 188.241 237.059 188.421 236.879C188.745 236.567 188.781 236.003 188.781 235.355ZM200.762 234.215C200.762 235.847 200.738 236.807 199.886 237.659C199.31 238.235 198.59 238.559 197.606 238.559C196.622 238.559 195.89 238.235 195.314 237.659C194.462 236.807 194.45 235.847 194.45 234.215C194.45 232.583 194.462 231.623 195.314 230.771C195.89 230.195 196.622 229.871 197.606 229.871C198.59 229.871 199.31 230.195 199.886 230.771C200.738 231.623 200.762 232.583 200.762 234.215ZM199.094 234.215C199.094 232.583 198.986 232.175 198.674 231.815C198.434 231.539 198.062 231.359 197.606 231.359C197.15 231.359 196.778 231.539 196.526 231.815C196.214 232.175 196.118 232.583 196.118 234.215C196.118 235.847 196.214 236.243 196.526 236.603C196.778 236.879 197.15 237.071 197.606 237.071C198.062 237.071 198.434 236.879 198.674 236.603C198.986 236.243 199.094 235.847 199.094 234.215ZM209.001 238.487H207.513L204.129 233.243V238.487H202.461V229.943H203.949L207.333 235.175V229.943H209.001V238.487ZM216.62 238.487H210.992V229.943H216.62V231.431H212.66V233.435H216.032V234.923H212.66V236.999H216.62V238.487ZM225.391 238.487H224.347L222.931 236.195L221.491 238.487H220.447L222.451 235.475L220.531 232.583H221.575L222.931 234.767L224.263 232.583H225.307L223.387 235.475L225.391 238.487ZM230.918 238.487H230.006V229.943H230.918V238.487ZM237.928 235.535C237.928 236.483 237.796 237.443 237.208 238.043C236.896 238.355 236.38 238.559 235.768 238.559C235.108 238.559 234.592 238.403 234.1 237.779V238.487H233.236V229.943H234.1V233.267C234.592 232.655 235.12 232.511 235.768 232.511C236.38 232.511 236.896 232.715 237.208 233.027C237.796 233.615 237.928 234.587 237.928 235.535ZM237.064 235.535C237.064 234.383 236.872 233.279 235.588 233.279C234.292 233.279 234.1 234.383 234.1 235.535C234.1 236.687 234.292 237.791 235.588 237.791C236.872 237.791 237.064 236.687 237.064 235.535ZM244.287 235.535C244.287 236.447 244.167 237.275 243.567 237.887C243.159 238.307 242.595 238.559 241.875 238.559C241.155 238.559 240.591 238.307 240.183 237.887C239.583 237.275 239.463 236.447 239.463 235.535C239.463 234.623 239.583 233.783 240.183 233.183C240.591 232.763 241.155 232.511 241.875 232.511C242.595 232.511 243.159 232.763 243.567 233.183C244.167 233.783 244.287 234.623 244.287 235.535ZM243.423 235.535C243.423 234.863 243.387 234.143 242.955 233.711C242.667 233.423 242.295 233.279 241.875 233.279C241.455 233.279 241.095 233.423 240.807 233.711C240.375 234.143 240.327 234.863 240.327 235.535C240.327 236.195 240.363 236.915 240.807 237.359C241.095 237.647 241.455 237.791 241.875 237.791C242.295 237.791 242.667 237.647 242.955 237.359C243.387 236.915 243.423 236.195 243.423 235.535ZM250.173 232.583L248.001 238.487H247.233L245.073 232.583H246.009L247.617 237.323L249.237 232.583H250.173ZM255.795 235.763H251.811C251.811 237.059 252.411 237.803 253.551 237.803C254.235 237.803 254.631 237.599 255.099 237.131L255.687 237.647C255.087 238.247 254.523 238.559 253.527 238.559C251.955 238.559 250.947 237.623 250.947 235.535C250.947 233.615 251.871 232.511 253.371 232.511C254.907 232.511 255.795 233.603 255.795 235.379V235.763ZM254.943 235.115C254.907 234.635 254.895 234.443 254.751 234.131C254.499 233.591 254.007 233.243 253.371 233.243C252.735 233.243 252.243 233.591 251.991 234.131C251.847 234.443 251.835 234.635 251.811 235.115H254.943ZM261.895 236.759C261.895 237.899 260.935 238.559 259.495 238.559C258.487 238.559 257.707 238.331 257.071 237.707L257.647 237.131C258.103 237.611 258.751 237.815 259.483 237.815C260.467 237.815 261.055 237.467 261.055 236.771C261.055 236.243 260.767 235.967 260.071 235.907L259.099 235.823C257.947 235.727 257.335 235.223 257.335 234.239C257.335 233.159 258.235 232.511 259.507 232.511C260.359 232.511 261.091 232.715 261.631 233.147L261.067 233.711C260.647 233.387 260.107 233.243 259.495 233.243C258.631 233.243 258.175 233.603 258.175 234.215C258.175 234.743 258.499 235.007 259.231 235.079L260.155 235.163C261.187 235.259 261.895 235.643 261.895 236.759ZM268.28 235.535C268.28 236.483 268.148 237.443 267.56 238.043C267.248 238.355 266.732 238.559 266.12 238.559C265.472 238.559 264.944 238.403 264.452 237.791V241.127H263.588V232.583H264.452V233.279C264.944 232.667 265.46 232.511 266.12 232.511C266.732 232.511 267.248 232.715 267.56 233.027C268.148 233.615 268.28 234.587 268.28 235.535ZM267.416 235.535C267.416 234.383 267.224 233.279 265.94 233.279C264.644 233.279 264.452 234.383 264.452 235.535C264.452 236.687 264.644 237.791 265.94 237.791C267.224 237.791 267.416 236.687 267.416 235.535ZM274.339 238.487H273.475V237.923C273.007 238.391 272.563 238.559 271.771 238.559C270.955 238.559 270.511 238.415 270.103 238.019C269.803 237.731 269.659 237.287 269.659 236.819C269.659 235.775 270.391 235.115 271.711 235.115H273.475V234.551C273.475 233.699 273.055 233.255 271.963 233.255C271.219 233.255 270.835 233.447 270.475 233.939L269.887 233.399C270.403 232.715 271.003 232.511 271.975 232.511C273.571 232.511 274.339 233.207 274.339 234.479V238.487ZM273.475 236.399V235.763H271.831C270.943 235.763 270.499 236.111 270.499 236.807C270.499 237.491 270.919 237.815 271.867 237.815C272.359 237.815 272.791 237.767 273.175 237.419C273.379 237.227 273.475 236.891 273.475 236.399Z" fill="#1F073B"/>
<path d="M46.0124 257.487H45.1004V253.587H41.0444V257.487H40.1324V248.943H41.0444V252.771H45.1004V248.943H46.0124V257.487ZM49.1959 257.487H48.3319V251.583H49.1959V257.487ZM49.2559 249.903H48.2839V248.931H49.2559V249.903ZM55.6153 255.759C55.6153 256.899 54.6553 257.559 53.2153 257.559C52.2073 257.559 51.4273 257.331 50.7913 256.707L51.3673 256.131C51.8233 256.611 52.4713 256.815 53.2033 256.815C54.1873 256.815 54.7753 256.467 54.7753 255.771C54.7753 255.243 54.4873 254.967 53.7913 254.907L52.8193 254.823C51.6673 254.727 51.0553 254.223 51.0553 253.239C51.0553 252.159 51.9553 251.511 53.2273 251.511C54.0793 251.511 54.8113 251.715 55.3513 252.147L54.7873 252.711C54.3673 252.387 53.8273 252.243 53.2153 252.243C52.3513 252.243 51.8953 252.603 51.8953 253.215C51.8953 253.743 52.2193 254.007 52.9513 254.079L53.8753 254.163C54.9073 254.259 55.6153 254.643 55.6153 255.759ZM59.4593 257.487H58.8473C57.8393 257.487 57.3353 256.779 57.3353 255.903V252.243H56.5913V251.583H57.3353V249.771H58.1993V251.583H59.4593V252.243H58.1993V255.879C58.1993 256.419 58.4513 256.743 59.0033 256.743H59.4593V257.487ZM65.629 254.535C65.629 255.447 65.509 256.275 64.909 256.887C64.501 257.307 63.937 257.559 63.217 257.559C62.497 257.559 61.933 257.307 61.525 256.887C60.925 256.275 60.805 255.447 60.805 254.535C60.805 253.623 60.925 252.783 61.525 252.183C61.933 251.763 62.497 251.511 63.217 251.511C63.937 251.511 64.501 251.763 64.909 252.183C65.509 252.783 65.629 253.623 65.629 254.535ZM64.765 254.535C64.765 253.863 64.729 253.143 64.297 252.711C64.009 252.423 63.637 252.279 63.217 252.279C62.797 252.279 62.437 252.423 62.149 252.711C61.717 253.143 61.669 253.863 61.669 254.535C61.669 255.195 61.705 255.915 62.149 256.359C62.437 256.647 62.797 256.791 63.217 256.791C63.637 256.791 64.009 256.647 64.297 256.359C64.729 255.915 64.765 255.195 64.765 254.535ZM64.705 248.523L63.445 250.359H62.617L63.709 248.523H64.705ZM71.4163 252.063L70.7803 252.711C70.4563 252.387 70.2163 252.279 69.7603 252.279C68.8963 252.279 68.3443 252.963 68.3443 253.863V257.487H67.4803V251.583H68.3443V252.303C68.6683 251.811 69.3163 251.511 70.0003 251.511C70.5643 251.511 70.9963 251.643 71.4163 252.063ZM73.3951 257.487H72.5311V251.583H73.3951V257.487ZM73.4551 249.903H72.4831V248.931H73.4551V249.903ZM79.7905 256.683C79.1785 257.343 78.6625 257.559 77.8465 257.559C76.3585 257.559 75.2305 256.551 75.2305 254.535C75.2305 252.519 76.3585 251.511 77.8465 251.511C78.6625 251.511 79.1785 251.727 79.7905 252.387L79.2025 252.939C78.7585 252.447 78.4105 252.279 77.8465 252.279C77.2705 252.279 76.7905 252.507 76.4785 252.951C76.2025 253.335 76.0945 253.791 76.0945 254.535C76.0945 255.279 76.2025 255.735 76.4785 256.119C76.7905 256.563 77.2705 256.791 77.8465 256.791C78.4105 256.791 78.7585 256.611 79.2025 256.119L79.7905 256.683ZM85.7736 254.535C85.7736 255.447 85.6536 256.275 85.0536 256.887C84.6456 257.307 84.0816 257.559 83.3616 257.559C82.6416 257.559 82.0776 257.307 81.6696 256.887C81.0696 256.275 80.9496 255.447 80.9496 254.535C80.9496 253.623 81.0696 252.783 81.6696 252.183C82.0776 251.763 82.6416 251.511 83.3616 251.511C84.0816 251.511 84.6456 251.763 85.0536 252.183C85.6536 252.783 85.7736 253.623 85.7736 254.535ZM84.9096 254.535C84.9096 253.863 84.8736 253.143 84.4416 252.711C84.1536 252.423 83.7816 252.279 83.3616 252.279C82.9416 252.279 82.5816 252.423 82.2936 252.711C81.8616 253.143 81.8136 253.863 81.8136 254.535C81.8136 255.195 81.8496 255.915 82.2936 256.359C82.5816 256.647 82.9416 256.791 83.3616 256.791C83.7816 256.791 84.1536 256.647 84.4416 256.359C84.8736 255.915 84.9096 255.195 84.9096 254.535ZM95.2571 257.487H94.3931V253.851C94.3931 252.807 93.8291 252.279 92.9411 252.279C92.0531 252.279 91.4771 252.819 91.4771 253.851V257.487H90.6131V251.583H91.4771V252.231C91.8971 251.751 92.4731 251.511 93.1331 251.511C93.7691 251.511 94.2851 251.703 94.6451 252.063C95.0651 252.471 95.2571 253.023 95.2571 253.707V257.487ZM101.563 257.487H100.699V256.923C100.231 257.391 99.7874 257.559 98.9954 257.559C98.1794 257.559 97.7354 257.415 97.3274 257.019C97.0274 256.731 96.8834 256.287 96.8834 255.819C96.8834 254.775 97.6154 254.115 98.9354 254.115H100.699V253.551C100.699 252.699 100.279 252.255 99.1874 252.255C98.4434 252.255 98.0594 252.447 97.6994 252.939L97.1114 252.399C97.6274 251.715 98.2274 251.511 99.1994 251.511C100.795 251.511 101.563 252.207 101.563 253.479V257.487ZM100.699 255.399V254.763H99.0554C98.1674 254.763 97.7234 255.111 97.7234 255.807C97.7234 256.491 98.1434 256.815 99.0914 256.815C99.5834 256.815 100.015 256.767 100.399 256.419C100.603 256.227 100.699 255.891 100.699 255.399ZM101.179 249.591C100.639 250.143 100.315 250.203 100.039 250.203C99.7034 250.203 99.4754 250.083 99.1874 249.915C98.9594 249.783 98.7554 249.675 98.5154 249.675C98.3114 249.675 98.1674 249.699 97.8074 250.059L97.3634 249.627C97.9154 249.075 98.2154 249.015 98.5034 249.015C98.8514 249.015 99.0554 249.111 99.3554 249.303C99.6074 249.447 99.7874 249.543 100.027 249.543C100.219 249.543 100.375 249.519 100.735 249.159L101.179 249.591ZM108.18 254.535C108.18 255.447 108.06 256.275 107.46 256.887C107.052 257.307 106.488 257.559 105.768 257.559C105.048 257.559 104.484 257.307 104.076 256.887C103.476 256.275 103.356 255.447 103.356 254.535C103.356 253.623 103.476 252.783 104.076 252.183C104.484 251.763 105.048 251.511 105.768 251.511C106.488 251.511 107.052 251.763 107.46 252.183C108.06 252.783 108.18 253.623 108.18 254.535ZM107.316 254.535C107.316 253.863 107.28 253.143 106.848 252.711C106.56 252.423 106.188 252.279 105.768 252.279C105.348 252.279 104.988 252.423 104.7 252.711C104.268 253.143 104.22 253.863 104.22 254.535C104.22 255.195 104.256 255.915 104.7 256.359C104.988 256.647 105.348 256.791 105.768 256.791C106.188 256.791 106.56 256.647 106.848 256.359C107.28 255.915 107.316 255.195 107.316 254.535ZM117.375 257.667C117.375 259.131 116.463 260.199 114.915 260.199C114.027 260.199 113.535 259.971 112.911 259.407L113.475 258.855C113.907 259.239 114.207 259.443 114.891 259.443C116.031 259.443 116.511 258.639 116.511 257.631V256.707C116.031 257.319 115.491 257.475 114.855 257.475C114.255 257.475 113.739 257.259 113.427 256.947C112.839 256.359 112.707 255.447 112.707 254.487C112.707 253.527 112.839 252.615 113.427 252.027C113.739 251.715 114.267 251.511 114.867 251.511C115.515 251.511 116.043 251.655 116.523 252.279V251.583H117.375V257.667ZM116.511 254.487C116.511 253.383 116.331 252.279 115.047 252.279C113.763 252.279 113.571 253.383 113.571 254.487C113.571 255.591 113.763 256.695 115.047 256.695C116.331 256.695 116.511 255.591 116.511 254.487ZM123.747 257.487H122.883V256.923C122.415 257.391 121.971 257.559 121.179 257.559C120.363 257.559 119.919 257.415 119.511 257.019C119.211 256.731 119.067 256.287 119.067 255.819C119.067 254.775 119.799 254.115 121.119 254.115H122.883V253.551C122.883 252.699 122.463 252.255 121.371 252.255C120.627 252.255 120.243 252.447 119.883 252.939L119.295 252.399C119.811 251.715 120.411 251.511 121.383 251.511C122.979 251.511 123.747 252.207 123.747 253.479V257.487ZM122.883 255.399V254.763H121.239C120.351 254.763 119.907 255.111 119.907 255.807C119.907 256.491 120.327 256.815 121.275 256.815C121.767 256.815 122.199 256.767 122.583 256.419C122.787 256.227 122.883 255.891 122.883 255.399ZM129.787 252.063L129.151 252.711C128.827 252.387 128.587 252.279 128.131 252.279C127.267 252.279 126.715 252.963 126.715 253.863V257.487H125.851V251.583H126.715V252.303C127.039 251.811 127.687 251.511 128.371 251.511C128.935 251.511 129.367 251.643 129.787 252.063ZM134.997 257.487H134.133V256.923C133.665 257.391 133.221 257.559 132.429 257.559C131.613 257.559 131.169 257.415 130.761 257.019C130.461 256.731 130.317 256.287 130.317 255.819C130.317 254.775 131.049 254.115 132.369 254.115H134.133V253.551C134.133 252.699 133.713 252.255 132.621 252.255C131.877 252.255 131.493 252.447 131.133 252.939L130.545 252.399C131.061 251.715 131.661 251.511 132.633 251.511C134.229 251.511 134.997 252.207 134.997 253.479V257.487ZM134.133 255.399V254.763H132.489C131.601 254.763 131.157 255.111 131.157 255.807C131.157 256.491 131.577 256.815 132.525 256.815C133.017 256.815 133.449 256.767 133.833 256.419C134.037 256.227 134.133 255.891 134.133 255.399ZM141.745 257.487H140.881V253.851C140.881 252.807 140.317 252.279 139.429 252.279C138.541 252.279 137.965 252.819 137.965 253.851V257.487H137.101V251.583H137.965V252.231C138.385 251.751 138.961 251.511 139.621 251.511C140.257 251.511 140.773 251.703 141.133 252.063C141.553 252.471 141.745 253.023 141.745 253.707V257.487ZM146.108 257.487H145.496C144.488 257.487 143.984 256.779 143.984 255.903V252.243H143.24V251.583H143.984V249.771H144.848V251.583H146.108V252.243H144.848V255.879C144.848 256.419 145.1 256.743 145.652 256.743H146.108V257.487ZM152.289 254.763H148.305C148.305 256.059 148.905 256.803 150.045 256.803C150.729 256.803 151.125 256.599 151.593 256.131L152.181 256.647C151.581 257.247 151.017 257.559 150.021 257.559C148.449 257.559 147.441 256.623 147.441 254.535C147.441 252.615 148.365 251.511 149.865 251.511C151.401 251.511 152.289 252.603 152.289 254.379V254.763ZM151.437 254.115C151.401 253.635 151.389 253.443 151.245 253.131C150.993 252.591 150.501 252.243 149.865 252.243C149.229 252.243 148.737 252.591 148.485 253.131C148.341 253.443 148.329 253.635 148.305 254.115H151.437ZM161.053 252.063L160.417 252.711C160.093 252.387 159.853 252.279 159.397 252.279C158.533 252.279 157.981 252.963 157.981 253.863V257.487H157.117V251.583H157.981V252.303C158.305 251.811 158.953 251.511 159.637 251.511C160.201 251.511 160.633 251.643 161.053 252.063ZM166.329 254.763H162.345C162.345 256.059 162.945 256.803 164.085 256.803C164.769 256.803 165.165 256.599 165.633 256.131L166.221 256.647C165.621 257.247 165.057 257.559 164.061 257.559C162.489 257.559 161.481 256.623 161.481 254.535C161.481 252.615 162.405 251.511 163.905 251.511C165.441 251.511 166.329 252.603 166.329 254.379V254.763ZM165.477 254.115C165.441 253.635 165.429 253.443 165.285 253.131C165.033 252.591 164.541 252.243 163.905 252.243C163.269 252.243 162.777 252.591 162.525 253.131C162.381 253.443 162.369 253.635 162.345 254.115H165.477ZM172.812 257.487H171.948V253.851C171.948 252.807 171.384 252.279 170.496 252.279C169.608 252.279 169.032 252.819 169.032 253.851V257.487H168.168V251.583H169.032V252.231C169.452 251.751 170.028 251.511 170.688 251.511C171.324 251.511 171.84 251.703 172.2 252.063C172.62 252.471 172.812 253.023 172.812 253.707V257.487ZM177.174 257.487H176.562C175.554 257.487 175.05 256.779 175.05 255.903V252.243H174.306V251.583H175.05V249.771H175.914V251.583H177.174V252.243H175.914V255.879C175.914 256.419 176.166 256.743 176.718 256.743H177.174V257.487ZM183.044 257.487H182.18V256.923C181.712 257.391 181.268 257.559 180.476 257.559C179.66 257.559 179.216 257.415 178.808 257.019C178.508 256.731 178.364 256.287 178.364 255.819C178.364 254.775 179.096 254.115 180.416 254.115H182.18V253.551C182.18 252.699 181.76 252.255 180.668 252.255C179.924 252.255 179.54 252.447 179.18 252.939L178.592 252.399C179.108 251.715 179.708 251.511 180.68 251.511C182.276 251.511 183.044 252.207 183.044 253.479V257.487ZM182.18 255.399V254.763H180.536C179.648 254.763 179.204 255.111 179.204 255.807C179.204 256.491 179.624 256.815 180.572 256.815C181.064 256.815 181.496 256.767 181.88 256.419C182.084 256.227 182.18 255.891 182.18 255.399ZM189.84 254.535C189.84 255.483 189.708 256.443 189.12 257.043C188.808 257.355 188.292 257.559 187.68 257.559C187.02 257.559 186.504 257.403 186.012 256.779V257.487H185.148V248.943H186.012V252.267C186.504 251.655 187.032 251.511 187.68 251.511C188.292 251.511 188.808 251.715 189.12 252.027C189.708 252.615 189.84 253.587 189.84 254.535ZM188.976 254.535C188.976 253.383 188.784 252.279 187.5 252.279C186.204 252.279 186.012 253.383 186.012 254.535C186.012 255.687 186.204 256.791 187.5 256.791C188.784 256.791 188.976 255.687 188.976 254.535ZM192.551 257.487H191.687V251.583H192.551V257.487ZM192.611 249.903H191.639V248.931H192.611V249.903ZM196.811 257.487H196.187C195.155 257.487 194.687 256.815 194.687 255.915V248.943H195.551V255.879C195.551 256.455 195.743 256.743 196.343 256.743H196.811V257.487ZM199.102 257.487H198.238V251.583H199.102V257.487ZM199.162 249.903H198.19V248.931H199.162V249.903ZM205.642 257.487H204.79V256.779C204.298 257.403 203.782 257.559 203.11 257.559C202.498 257.559 201.982 257.355 201.67 257.043C201.082 256.443 200.95 255.483 200.95 254.535C200.95 253.587 201.082 252.615 201.67 252.027C201.982 251.715 202.498 251.511 203.11 251.511C203.77 251.511 204.286 251.655 204.778 252.267V248.943H205.642V257.487ZM204.778 254.535C204.778 253.383 204.586 252.279 203.302 252.279C202.006 252.279 201.814 253.383 201.814 254.535C201.814 255.687 202.006 256.791 203.302 256.791C204.586 256.791 204.778 255.687 204.778 254.535ZM212.013 257.487H211.149V256.923C210.681 257.391 210.237 257.559 209.445 257.559C208.629 257.559 208.185 257.415 207.777 257.019C207.477 256.731 207.333 256.287 207.333 255.819C207.333 254.775 208.065 254.115 209.385 254.115H211.149V253.551C211.149 252.699 210.729 252.255 209.637 252.255C208.893 252.255 208.509 252.447 208.149 252.939L207.561 252.399C208.077 251.715 208.677 251.511 209.649 251.511C211.245 251.511 212.013 252.207 212.013 253.479V257.487ZM211.149 255.399V254.763H209.505C208.617 254.763 208.173 255.111 208.173 255.807C208.173 256.491 208.593 256.815 209.541 256.815C210.033 256.815 210.465 256.767 210.849 256.419C211.053 256.227 211.149 255.891 211.149 255.399ZM218.497 257.487H217.645V256.779C217.153 257.403 216.637 257.559 215.965 257.559C215.353 257.559 214.837 257.355 214.525 257.043C213.937 256.443 213.805 255.483 213.805 254.535C213.805 253.587 213.937 252.615 214.525 252.027C214.837 251.715 215.353 251.511 215.965 251.511C216.625 251.511 217.141 251.655 217.633 252.267V248.943H218.497V257.487ZM217.633 254.535C217.633 253.383 217.441 252.279 216.157 252.279C214.861 252.279 214.669 253.383 214.669 254.535C214.669 255.687 214.861 256.791 216.157 256.791C217.441 256.791 217.633 255.687 217.633 254.535ZM225.18 254.763H221.196C221.196 256.059 221.796 256.803 222.936 256.803C223.62 256.803 224.016 256.599 224.484 256.131L225.072 256.647C224.472 257.247 223.908 257.559 222.912 257.559C221.34 257.559 220.332 256.623 220.332 254.535C220.332 252.615 221.256 251.511 222.756 251.511C224.292 251.511 225.18 252.603 225.18 254.379V254.763ZM224.328 254.115C224.292 253.635 224.28 253.443 224.136 253.131C223.884 252.591 223.392 252.243 222.756 252.243C222.12 252.243 221.628 252.591 221.376 253.131C221.232 253.443 221.22 253.635 221.196 254.115H224.328ZM232.324 252.243H231.064V257.487H230.2V252.243H229.444V251.583H230.2V250.503C230.2 249.627 230.692 248.919 231.7 248.919H232.324V249.663H231.856C231.304 249.663 231.064 249.987 231.064 250.527V251.583H232.324V252.243ZM238.365 257.487H237.513V256.827C237.093 257.307 236.505 257.559 235.845 257.559C235.209 257.559 234.681 257.367 234.321 257.007C233.901 256.599 233.721 256.035 233.721 255.351V251.583H234.585V255.219C234.585 256.263 235.137 256.791 236.025 256.791C236.913 256.791 237.501 256.251 237.501 255.219V251.583H238.365V257.487ZM242.787 257.487H242.175C241.167 257.487 240.663 256.779 240.663 255.903V252.243H239.919V251.583H240.663V249.771H241.527V251.583H242.787V252.243H241.527V255.879C241.527 256.419 241.779 256.743 242.331 256.743H242.787V257.487ZM249.088 257.487H248.236V256.827C247.816 257.307 247.228 257.559 246.568 257.559C245.932 257.559 245.404 257.367 245.044 257.007C244.624 256.599 244.444 256.035 244.444 255.351V251.583H245.308V255.219C245.308 256.263 245.86 256.791 246.748 256.791C247.636 256.791 248.224 256.251 248.224 255.219V251.583H249.088V257.487ZM255.178 252.063L254.542 252.711C254.218 252.387 253.978 252.279 253.522 252.279C252.658 252.279 252.106 252.963 252.106 253.863V257.487H251.242V251.583H252.106V252.303C252.43 251.811 253.078 251.511 253.762 251.511C254.326 251.511 254.758 251.643 255.178 252.063ZM260.388 257.487H259.524V256.923C259.056 257.391 258.612 257.559 257.82 257.559C257.004 257.559 256.56 257.415 256.152 257.019C255.852 256.731 255.708 256.287 255.708 255.819C255.708 254.775 256.44 254.115 257.76 254.115H259.524V253.551C259.524 252.699 259.104 252.255 258.012 252.255C257.268 252.255 256.884 252.447 256.524 252.939L255.936 252.399C256.452 251.715 257.052 251.511 258.024 251.511C259.62 251.511 260.388 252.207 260.388 253.479V257.487ZM259.524 255.399V254.763H257.88C256.992 254.763 256.548 255.111 256.548 255.807C256.548 256.491 256.968 256.815 257.916 256.815C258.408 256.815 258.84 256.767 259.224 256.419C259.428 256.227 259.524 255.891 259.524 255.399ZM266.296 251.823L265.96 252.411L264.556 251.559L264.604 253.203H263.908L263.956 251.559L262.564 252.411L262.216 251.823L263.656 251.043L262.216 250.251L262.564 249.675L263.956 250.527L263.908 248.883H264.604L264.556 250.527L265.96 249.675L266.296 250.251L264.856 251.043L266.296 251.823Z" fill="#5B5F67"/>
<g opacity="0.7">
<path d="M9.40153 151.232H5.75408V150.247L7.99478 147.644C8.21379 147.383 8.30645 147.197 8.30645 146.919C8.30645 146.473 8.04532 146.17 7.58202 146.17C7.2198 146.17 6.84916 146.355 6.84916 146.936H5.75408C5.75408 145.841 6.55433 145.184 7.58202 145.184C8.6434 145.184 9.40153 145.85 9.40153 146.928C9.40153 147.509 9.17409 147.821 8.76133 148.301L7.08502 150.247H9.40153V151.232ZM13.9416 149.497C13.9416 150.643 13.0993 151.283 12.1221 151.283C11.145 151.283 10.2942 150.643 10.2942 149.497V146.97C10.2942 145.824 11.145 145.184 12.1221 145.184C13.0993 145.184 13.9416 145.824 13.9416 146.97V149.497ZM12.8466 149.489V146.987C12.8466 146.481 12.5602 146.17 12.1221 146.17C11.6841 146.17 11.3893 146.481 11.3893 146.987V149.489C11.3893 149.994 11.6841 150.297 12.1221 150.297C12.5602 150.297 12.8466 149.994 12.8466 149.489ZM18.5491 151.232H14.9017V150.247L17.1424 147.644C17.3614 147.383 17.454 147.197 17.454 146.919C17.454 146.473 17.1929 146.17 16.7296 146.17C16.3674 146.17 15.9967 146.355 15.9967 146.936H14.9017C14.9017 145.841 15.7019 145.184 16.7296 145.184C17.791 145.184 18.5491 145.85 18.5491 146.928C18.5491 147.509 18.3217 147.821 17.9089 148.301L16.2326 150.247H18.5491V151.232ZM23.0892 149.497C23.0892 150.643 22.2469 151.283 21.2697 151.283C20.2926 151.283 19.4418 150.643 19.4418 149.497V146.97C19.4418 145.824 20.2926 145.184 21.2697 145.184C22.2469 145.184 23.0892 145.824 23.0892 146.97V149.497ZM21.9941 149.489V146.987C21.9941 146.481 21.7077 146.17 21.2697 146.17C20.8317 146.17 20.5369 146.481 20.5369 146.987V149.489C20.5369 149.994 20.8317 150.297 21.2697 150.297C21.7077 150.297 21.9941 149.994 21.9941 149.489Z" fill="#1F073B"/>
<path d="M245.818 151.232H242.171V150.247L244.412 147.644C244.631 147.383 244.723 147.197 244.723 146.919C244.723 146.473 244.462 146.17 243.999 146.17C243.637 146.17 243.266 146.355 243.266 146.936H242.171C242.171 145.841 242.971 145.184 243.999 145.184C245.06 145.184 245.818 145.85 245.818 146.928C245.818 147.509 245.591 147.821 245.178 148.301L243.502 150.247H245.818V151.232ZM250.358 149.497C250.358 150.643 249.516 151.283 248.539 151.283C247.562 151.283 246.711 150.643 246.711 149.497V146.97C246.711 145.824 247.562 145.184 248.539 145.184C249.516 145.184 250.358 145.824 250.358 146.97V149.497ZM249.263 149.489V146.987C249.263 146.481 248.977 146.17 248.539 146.17C248.101 146.17 247.806 146.481 247.806 146.987V149.489C247.806 149.994 248.101 150.297 248.539 150.297C248.977 150.297 249.263 149.994 249.263 149.489ZM254.966 151.232H251.318V150.247L253.559 147.644C253.778 147.383 253.871 147.197 253.871 146.919C253.871 146.473 253.61 146.17 253.146 146.17C252.784 146.17 252.413 146.355 252.413 146.936H251.318C251.318 145.841 252.119 145.184 253.146 145.184C254.208 145.184 254.966 145.85 254.966 146.928C254.966 147.509 254.738 147.821 254.326 148.301L252.649 150.247H254.966V151.232ZM259.54 151.232H255.892V150.247L258.133 147.644C258.352 147.383 258.445 147.197 258.445 146.919C258.445 146.473 258.183 146.17 257.72 146.17C257.358 146.17 256.987 146.355 256.987 146.936H255.892C255.892 145.841 256.692 145.184 257.72 145.184C258.782 145.184 259.54 145.85 259.54 146.928C259.54 147.509 259.312 147.821 258.899 148.301L257.223 150.247H259.54V151.232Z" fill="#1F073B"/>
<path d="M273.085 125.4H272.445V119.402H273.085V125.4ZM278.006 123.328C278.006 123.993 277.914 124.667 277.501 125.088C277.282 125.307 276.92 125.45 276.49 125.45C276.027 125.45 275.665 125.341 275.319 124.903V125.4H274.713V119.402H275.319V121.735C275.665 121.306 276.035 121.205 276.49 121.205C276.92 121.205 277.282 121.348 277.501 121.567C277.914 121.98 278.006 122.662 278.006 123.328ZM277.4 123.328C277.4 122.519 277.265 121.744 276.364 121.744C275.454 121.744 275.319 122.519 275.319 123.328C275.319 124.136 275.454 124.911 276.364 124.911C277.265 124.911 277.4 124.136 277.4 123.328ZM282.47 123.328C282.47 123.968 282.386 124.549 281.965 124.979C281.678 125.273 281.282 125.45 280.777 125.45C280.272 125.45 279.876 125.273 279.589 124.979C279.168 124.549 279.084 123.968 279.084 123.328C279.084 122.687 279.168 122.098 279.589 121.677C279.876 121.382 280.272 121.205 280.777 121.205C281.282 121.205 281.678 121.382 281.965 121.677C282.386 122.098 282.47 122.687 282.47 123.328ZM281.864 123.328C281.864 122.856 281.838 122.35 281.535 122.047C281.333 121.845 281.072 121.744 280.777 121.744C280.482 121.744 280.23 121.845 280.027 122.047C279.724 122.35 279.69 122.856 279.69 123.328C279.69 123.791 279.716 124.296 280.027 124.608C280.23 124.81 280.482 124.911 280.777 124.911C281.072 124.911 281.333 124.81 281.535 124.608C281.838 124.296 281.864 123.791 281.864 123.328ZM286.602 121.255L285.077 125.4H284.538L283.022 121.255H283.679L284.808 124.583L285.945 121.255H286.602ZM290.549 123.488H287.752C287.752 124.397 288.173 124.92 288.973 124.92C289.454 124.92 289.732 124.776 290.06 124.448L290.473 124.81C290.052 125.231 289.656 125.45 288.957 125.45C287.853 125.45 287.145 124.793 287.145 123.328C287.145 121.98 287.794 121.205 288.847 121.205C289.925 121.205 290.549 121.971 290.549 123.218V123.488ZM289.951 123.033C289.925 122.696 289.917 122.561 289.816 122.342C289.639 121.963 289.293 121.719 288.847 121.719C288.401 121.719 288.055 121.963 287.878 122.342C287.777 122.561 287.769 122.696 287.752 123.033H289.951ZM294.83 124.187C294.83 124.987 294.156 125.45 293.145 125.45C292.438 125.45 291.89 125.29 291.444 124.852L291.848 124.448C292.168 124.785 292.623 124.928 293.137 124.928C293.828 124.928 294.24 124.684 294.24 124.195C294.24 123.825 294.038 123.631 293.55 123.589L292.867 123.53C292.059 123.462 291.629 123.109 291.629 122.418C291.629 121.66 292.261 121.205 293.154 121.205C293.752 121.205 294.266 121.348 294.645 121.651L294.249 122.047C293.954 121.82 293.575 121.719 293.145 121.719C292.539 121.719 292.219 121.971 292.219 122.401C292.219 122.772 292.446 122.957 292.96 123.007L293.609 123.066C294.333 123.134 294.83 123.403 294.83 124.187ZM299.312 123.328C299.312 123.993 299.22 124.667 298.807 125.088C298.588 125.307 298.226 125.45 297.796 125.45C297.341 125.45 296.971 125.341 296.625 124.911V127.253H296.019V121.255H296.625V121.744C296.971 121.314 297.333 121.205 297.796 121.205C298.226 121.205 298.588 121.348 298.807 121.567C299.22 121.98 299.312 122.662 299.312 123.328ZM298.706 123.328C298.706 122.519 298.571 121.744 297.67 121.744C296.76 121.744 296.625 122.519 296.625 123.328C296.625 124.136 296.76 124.911 297.67 124.911C298.571 124.911 298.706 124.136 298.706 123.328ZM303.566 125.4H302.959V125.004C302.631 125.332 302.319 125.45 301.763 125.45C301.19 125.45 300.878 125.349 300.592 125.071C300.381 124.869 300.28 124.557 300.28 124.229C300.28 123.496 300.794 123.033 301.721 123.033H302.959V122.637C302.959 122.039 302.664 121.727 301.898 121.727C301.375 121.727 301.106 121.862 300.853 122.207L300.44 121.828C300.803 121.348 301.224 121.205 301.906 121.205C303.027 121.205 303.566 121.693 303.566 122.586V125.4ZM302.959 123.934V123.488H301.805C301.182 123.488 300.87 123.732 300.87 124.22C300.87 124.701 301.165 124.928 301.83 124.928C302.176 124.928 302.479 124.894 302.749 124.65C302.892 124.515 302.959 124.279 302.959 123.934Z" fill="#1F073B"/>
</g>
<path d="M278.368 48.2951H276.401V54.4432H275.675V48.2951H273.709V47.6459H278.368V48.2951ZM282.337 52.0947C282.337 52.8203 282.241 53.479 281.764 53.9659C281.439 54.3 280.991 54.5005 280.418 54.5005C279.845 54.5005 279.396 54.3 279.072 53.9659C278.594 53.479 278.499 52.8203 278.499 52.0947C278.499 51.3692 278.594 50.7009 279.072 50.2235C279.396 49.8894 279.845 49.6889 280.418 49.6889C280.991 49.6889 281.439 49.8894 281.764 50.2235C282.241 50.7009 282.337 51.3692 282.337 52.0947ZM281.649 52.0947C281.649 51.5601 281.621 50.9873 281.277 50.6436C281.048 50.4145 280.752 50.2999 280.418 50.2999C280.084 50.2999 279.797 50.4145 279.568 50.6436C279.225 50.9873 279.186 51.5601 279.186 52.0947C279.186 52.6198 279.215 53.1926 279.568 53.5458C279.797 53.775 280.084 53.8895 280.418 53.8895C280.752 53.8895 281.048 53.775 281.277 53.5458C281.621 53.1926 281.649 52.6198 281.649 52.0947ZM286.941 50.1281L286.435 50.6436C286.177 50.3858 285.986 50.2999 285.624 50.2999C284.936 50.2999 284.497 50.8441 284.497 51.5601V54.4432H283.81V49.7462H284.497V50.319C284.755 49.9276 285.27 49.6889 285.814 49.6889C286.263 49.6889 286.607 49.7939 286.941 50.1281ZM291.128 52.0947C291.128 52.8203 291.033 53.479 290.556 53.9659C290.231 54.3 289.782 54.5005 289.21 54.5005C288.637 54.5005 288.188 54.3 287.863 53.9659C287.386 53.479 287.291 52.8203 287.291 52.0947C287.291 51.3692 287.386 50.7009 287.863 50.2235C288.188 49.8894 288.637 49.6889 289.21 49.6889C289.782 49.6889 290.231 49.8894 290.556 50.2235C291.033 50.7009 291.128 51.3692 291.128 52.0947ZM290.441 52.0947C290.441 51.5601 290.412 50.9873 290.069 50.6436C289.84 50.4145 289.544 50.2999 289.21 50.2999C288.875 50.2999 288.589 50.4145 288.36 50.6436C288.016 50.9873 287.978 51.5601 287.978 52.0947C287.978 52.6198 288.007 53.1926 288.36 53.5458C288.589 53.775 288.875 53.8895 289.21 53.8895C289.544 53.8895 289.84 53.775 290.069 53.5458C290.412 53.1926 290.441 52.6198 290.441 52.0947Z" fill="#6131B4"/>
<defs>
<linearGradient id="paint0_linear_1_2131" x1="214.01" y1="59.2766" x2="-0.331885" y2="59.2766" gradientUnits="userSpaceOnUse">
<stop stop-color="#A6ABB1"/>
<stop offset="1" stop-color="#D2D5D8" stop-opacity="0"/>
</linearGradient>
</defs>
</svg>
