<svg width="556" height="357" viewBox="0 0 556 357" fill="none" xmlns="http://www.w3.org/2000/svg">
<path d="M29.3491 43.1469C28.9991 45.1209 27.6131 46.2129 25.7931 46.2129C24.7011 46.2129 23.8611 45.8489 23.2171 45.2049C22.2511 44.2249 22.2091 43.2309 22.2091 41.1449C22.2091 39.0589 22.2511 38.0649 23.2171 37.0849C23.8611 36.4409 24.7011 36.0769 25.7931 36.0769C27.6271 36.0769 28.9991 37.1689 29.3491 39.1429H27.8091C27.5851 38.1209 26.8991 37.4209 25.7931 37.4209C25.1911 37.4209 24.6871 37.6449 24.3231 38.0369C23.8191 38.5689 23.7211 39.1709 23.7211 41.1449C23.7211 43.1189 23.8191 43.7209 24.3231 44.2529C24.6871 44.6449 25.1911 44.8689 25.7931 44.8689C26.8991 44.8689 27.5991 44.1689 27.8371 43.1469H29.3491ZM36.4182 46.1289H35.0182V45.4849C34.5002 46.0029 34.0102 46.2129 33.1282 46.2129C32.2462 46.2129 31.6582 46.0029 31.2242 45.5689C30.8602 45.1909 30.6642 44.6449 30.6642 44.0429C30.6642 42.8529 31.4902 41.9989 33.1282 41.9989H34.9902V41.4949C34.9902 40.5849 34.5562 40.1649 33.4362 40.1649C32.6802 40.1649 32.2882 40.3609 31.8822 40.8649L30.9582 39.9829C31.6162 39.1989 32.3022 38.9469 33.4922 38.9469C35.4522 38.9469 36.4182 39.7869 36.4182 41.3829V46.1289ZM34.9902 43.5669V42.9929H33.3522C32.4842 42.9929 32.0502 43.3569 32.0502 44.0149C32.0502 44.6729 32.4562 45.0229 33.3942 45.0229C33.8982 45.0229 34.3042 44.9669 34.6822 44.6169C34.9062 44.4069 34.9902 44.0709 34.9902 43.5669ZM43.604 39.6189L42.526 40.6969C42.204 40.3749 41.952 40.2209 41.462 40.2209C40.692 40.2209 40.048 40.8369 40.048 41.8169V46.1289H38.62V39.0309H40.02V39.8009C40.384 39.2969 41.112 38.9469 41.91 38.9469C42.596 38.9469 43.114 39.1289 43.604 39.6189ZM47.7403 46.1289H46.8863C45.5563 46.1289 44.9403 45.1769 44.9403 44.1549V40.1229H44.1283V39.0309H44.9403V37.0009H46.3683V39.0309H47.7403V40.1229H46.3683V44.0849C46.3683 44.6029 46.6203 44.9109 47.1523 44.9109H47.7403V46.1289ZM55.1451 42.9929H50.5391C50.5391 44.2249 51.1691 44.9809 52.3451 44.9809C53.1431 44.9809 53.5631 44.7569 54.0671 44.2529L54.9771 45.1069C54.2491 45.8349 53.5631 46.2129 52.3171 46.2129C50.5391 46.2129 49.1251 45.2749 49.1251 42.5729C49.1251 40.2629 50.3151 38.9469 52.1351 38.9469C54.0391 38.9469 55.1451 40.3189 55.1451 42.3909V42.9929ZM53.7311 41.9989C53.7031 41.5649 53.6751 41.3409 53.5351 41.0329C53.2971 40.5009 52.8071 40.1369 52.1351 40.1369C51.4491 40.1369 50.9591 40.5009 50.7211 41.0329C50.5811 41.3409 50.5531 41.5649 50.5391 41.9989H53.7311ZM58.464 46.1289H57.036V39.0309H58.464V46.1289ZM58.506 37.6309H56.994V36.1189H58.506V37.6309ZM65.7114 39.6189L64.6334 40.6969C64.3114 40.3749 64.0594 40.2209 63.5694 40.2209C62.7994 40.2209 62.1554 40.8369 62.1554 41.8169V46.1289H60.7274V39.0309H62.1274V39.8009C62.4914 39.2969 63.2194 38.9469 64.0174 38.9469C64.7034 38.9469 65.2214 39.1289 65.7114 39.6189ZM71.965 46.1289H70.565V45.4849C70.047 46.0029 69.557 46.2129 68.675 46.2129C67.793 46.2129 67.205 46.0029 66.771 45.5689C66.407 45.1909 66.211 44.6449 66.211 44.0429C66.211 42.8529 67.037 41.9989 68.675 41.9989H70.537V41.4949C70.537 40.5849 70.103 40.1649 68.983 40.1649C68.227 40.1649 67.835 40.3609 67.429 40.8649L66.505 39.9829C67.163 39.1989 67.849 38.9469 69.039 38.9469C70.999 38.9469 71.965 39.7869 71.965 41.3829V46.1289ZM70.537 43.5669V42.9929H68.899C68.031 42.9929 67.597 43.3569 67.597 44.0149C67.597 44.6729 68.003 45.0229 68.941 45.0229C69.445 45.0229 69.851 44.9669 70.229 44.6169C70.453 44.4069 70.537 44.0709 70.537 43.5669ZM83.8161 37.5189H81.0721V46.1289H79.5601V37.5189H76.8161V36.1609H83.8161V37.5189ZM89.829 42.5729C89.829 43.7769 89.661 44.6729 88.989 45.3729C88.527 45.8489 87.827 46.2129 86.861 46.2129C85.895 46.2129 85.209 45.8489 84.747 45.3729C84.075 44.6729 83.907 43.7769 83.907 42.5729C83.907 41.3829 84.075 40.4869 84.747 39.7869C85.209 39.3109 85.895 38.9469 86.861 38.9469C87.827 38.9469 88.527 39.3109 88.989 39.7869C89.661 40.4869 89.829 41.3829 89.829 42.5729ZM88.401 42.5729C88.401 41.8029 88.345 41.0609 87.911 40.6269C87.645 40.3609 87.281 40.2209 86.861 40.2209C86.441 40.2209 86.091 40.3609 85.825 40.6269C85.391 41.0609 85.335 41.8029 85.335 42.5729C85.335 43.3429 85.391 44.0849 85.825 44.5189C86.091 44.7849 86.441 44.9389 86.861 44.9389C87.281 44.9389 87.645 44.7849 87.911 44.5189C88.345 44.0849 88.401 43.3429 88.401 42.5729ZM96.7466 39.6189L95.6686 40.6969C95.3466 40.3749 95.0946 40.2209 94.6046 40.2209C93.8346 40.2209 93.1906 40.8369 93.1906 41.8169V46.1289H91.7626V39.0309H93.1626V39.8009C93.5266 39.2969 94.2546 38.9469 95.0526 38.9469C95.7386 38.9469 96.2566 39.1289 96.7466 39.6189ZM103.077 42.5729C103.077 43.7769 102.909 44.6729 102.237 45.3729C101.775 45.8489 101.075 46.2129 100.109 46.2129C99.1431 46.2129 98.4571 45.8489 97.9951 45.3729C97.3231 44.6729 97.1551 43.7769 97.1551 42.5729C97.1551 41.3829 97.3231 40.4869 97.9951 39.7869C98.4571 39.3109 99.1431 38.9469 100.109 38.9469C101.075 38.9469 101.775 39.3109 102.237 39.7869C102.909 40.4869 103.077 41.3829 103.077 42.5729ZM101.649 42.5729C101.649 41.8029 101.593 41.0609 101.159 40.6269C100.893 40.3609 100.529 40.2209 100.109 40.2209C99.6891 40.2209 99.3391 40.3609 99.0731 40.6269C98.6391 41.0609 98.5831 41.8029 98.5831 42.5729C98.5831 43.3429 98.6391 44.0849 99.0731 44.5189C99.3391 44.7849 99.6891 44.9389 100.109 44.9389C100.529 44.9389 100.893 44.7849 101.159 44.5189C101.593 44.0849 101.649 43.3429 101.649 42.5729ZM113.974 46.1289H112.252L110.768 43.7069L109.27 46.1289H107.548L109.984 42.5029L107.646 39.0309H109.368L110.768 41.3409L112.154 39.0309H113.876L111.552 42.5029L113.974 46.1289ZM120.458 46.1289H118.946V36.1609H120.458V46.1289ZM128.703 42.5729C128.703 43.7489 128.591 44.8829 127.905 45.5829C127.513 45.9749 126.883 46.2129 126.169 46.2129C125.413 46.2129 124.825 46.0169 124.293 45.3729V46.1289H122.893V36.1609H124.321V39.7449C124.839 39.1289 125.427 38.9469 126.183 38.9469C126.897 38.9469 127.513 39.1849 127.905 39.5769C128.591 40.2769 128.703 41.4109 128.703 42.5729ZM127.275 42.5729C127.275 41.3129 127.093 40.2209 125.805 40.2209C124.503 40.2209 124.321 41.3129 124.321 42.5729C124.321 43.8329 124.503 44.9389 125.805 44.9389C127.093 44.9389 127.275 43.8329 127.275 42.5729ZM136.218 42.5729C136.218 43.7769 136.05 44.6729 135.378 45.3729C134.916 45.8489 134.216 46.2129 133.25 46.2129C132.284 46.2129 131.598 45.8489 131.136 45.3729C130.464 44.6729 130.296 43.7769 130.296 42.5729C130.296 41.3829 130.464 40.4869 131.136 39.7869C131.598 39.3109 132.284 38.9469 133.25 38.9469C134.216 38.9469 134.916 39.3109 135.378 39.7869C136.05 40.4869 136.218 41.3829 136.218 42.5729ZM134.79 42.5729C134.79 41.8029 134.734 41.0609 134.3 40.6269C134.034 40.3609 133.67 40.2209 133.25 40.2209C132.83 40.2209 132.48 40.3609 132.214 40.6269C131.78 41.0609 131.724 41.8029 131.724 42.5729C131.724 43.3429 131.78 44.0849 132.214 44.5189C132.48 44.7849 132.83 44.9389 133.25 44.9389C133.67 44.9389 134.034 44.7849 134.3 44.5189C134.734 44.0849 134.79 43.3429 134.79 42.5729ZM143.363 39.0309L140.759 46.1289H139.597L136.993 39.0309H138.505L140.185 44.0289L141.851 39.0309H143.363ZM150.124 42.9929H145.518C145.518 44.2249 146.148 44.9809 147.324 44.9809C148.122 44.9809 148.542 44.7569 149.046 44.2529L149.956 45.1069C149.228 45.8349 148.542 46.2129 147.296 46.2129C145.518 46.2129 144.104 45.2749 144.104 42.5729C144.104 40.2629 145.294 38.9469 147.114 38.9469C149.018 38.9469 150.124 40.3189 150.124 42.3909V42.9929ZM148.71 41.9989C148.682 41.5649 148.654 41.3409 148.514 41.0329C148.276 40.5009 147.786 40.1369 147.114 40.1369C146.428 40.1369 145.938 40.5009 145.7 41.0329C145.56 41.3409 145.532 41.5649 145.518 41.9989H148.71ZM157.265 43.9589C157.265 45.4429 156.005 46.2129 154.311 46.2129C153.149 46.2129 152.169 46.0169 151.329 45.1909L152.267 44.2529C152.841 44.8409 153.611 44.9949 154.311 44.9949C155.193 44.9949 155.865 44.6869 155.865 44.0149C155.865 43.5249 155.599 43.2449 154.913 43.1749L153.779 43.0769C152.435 42.9509 151.679 42.3629 151.679 41.1169C151.679 39.7169 152.869 38.9469 154.353 38.9469C155.431 38.9469 156.327 39.1709 156.985 39.7449L156.089 40.6549C155.641 40.2769 155.011 40.1369 154.339 40.1369C153.471 40.1369 153.051 40.5009 153.051 41.0469C153.051 41.5369 153.331 41.7889 154.031 41.8589L155.025 41.9429C156.495 42.0689 157.265 42.7129 157.265 43.9589ZM164.811 42.5729C164.811 43.7349 164.699 44.8829 164.013 45.5829C163.621 45.9749 163.019 46.2129 162.291 46.2129C161.535 46.2129 160.947 46.0309 160.429 45.4009V48.9989H159.001V39.0309H160.401V39.7869C160.933 39.1429 161.521 38.9469 162.277 38.9469C163.005 38.9469 163.621 39.1849 164.013 39.5769C164.699 40.2769 164.811 41.4109 164.811 42.5729ZM163.383 42.5729C163.383 41.3129 163.201 40.2209 161.913 40.2209C160.611 40.2209 160.429 41.3129 160.429 42.5729C160.429 43.8329 160.611 44.9389 161.913 44.9389C163.201 44.9389 163.383 43.8329 163.383 42.5729ZM171.961 46.1289H170.561V45.4849C170.043 46.0029 169.553 46.2129 168.671 46.2129C167.789 46.2129 167.201 46.0029 166.767 45.5689C166.403 45.1909 166.207 44.6449 166.207 44.0429C166.207 42.8529 167.033 41.9989 168.671 41.9989H170.533V41.4949C170.533 40.5849 170.099 40.1649 168.979 40.1649C168.223 40.1649 167.831 40.3609 167.425 40.8649L166.501 39.9829C167.159 39.1989 167.845 38.9469 169.035 38.9469C170.995 38.9469 171.961 39.7869 171.961 41.3829V46.1289ZM170.533 43.5669V42.9929H168.895C168.027 42.9929 167.593 43.3569 167.593 44.0149C167.593 44.6729 167.999 45.0229 168.937 45.0229C169.441 45.0229 169.847 44.9669 170.225 44.6169C170.449 44.4069 170.533 44.0709 170.533 43.5669Z" fill="#1F073B"/>
<path d="M25.2881 72.313L23.0621 68.015C24.0281 67.665 24.8821 66.797 24.8821 65.397C24.8821 63.731 23.6781 62.345 21.6481 62.345H17.7421V72.313H19.6881V68.337H21.0881L23.0341 72.313H25.2881ZM22.9361 65.397C22.9361 66.167 22.3761 66.713 21.5221 66.713H19.6881V64.081H21.5221C22.3761 64.081 22.9361 64.627 22.9361 65.397ZM32.3305 69.233V68.463C32.3305 66.391 31.1825 64.935 29.1525 64.935C27.2625 64.935 25.9745 66.279 25.9745 68.659C25.9745 71.613 27.6265 72.397 29.3485 72.397C30.6645 72.397 31.3785 72.005 32.1205 71.249L31.0145 70.171C30.5525 70.619 30.1605 70.857 29.3625 70.857C28.3265 70.857 27.7665 70.185 27.7665 69.233H32.3305ZM30.5385 67.987H27.7665C27.7805 67.665 27.8085 67.469 27.9345 67.203C28.1305 66.769 28.5365 66.447 29.1525 66.447C29.7685 66.447 30.1745 66.769 30.3705 67.203C30.4965 67.469 30.5245 67.665 30.5385 67.987ZM40.0704 72.313V67.651C40.0704 66.853 39.9164 66.167 39.3284 65.579C38.9224 65.173 38.3344 64.935 37.6064 64.935C36.9344 64.935 36.2624 65.187 35.7864 65.691V65.019H34.0084V72.313H35.8284V67.903C35.8284 66.909 36.4724 66.573 37.0464 66.573C37.6204 66.573 38.2504 66.909 38.2504 67.903V72.313H40.0704ZM45.3098 72.313V70.773H44.6518C44.2178 70.773 44.0218 70.535 44.0218 70.115V66.615H45.3098V65.229H44.0218V63.073H42.2018V65.229H41.4318V66.615H42.2018V70.227C42.2018 71.263 42.8318 72.313 44.3158 72.313H45.3098ZM52.4033 72.313V67.511C52.4033 65.803 51.3533 64.935 49.2953 64.935C48.0773 64.935 47.3913 65.187 46.6773 65.971L47.8253 67.105C48.2173 66.657 48.5673 66.475 49.2253 66.475C50.1913 66.475 50.5833 66.825 50.5833 67.623V67.987H48.8893C47.1673 67.987 46.3693 68.939 46.3693 70.101C46.3693 70.745 46.5793 71.333 46.9713 71.739C47.3913 72.159 48.0073 72.383 48.8333 72.383C49.6733 72.383 50.1353 72.173 50.6253 71.683V72.313H52.4033ZM50.5833 69.625C50.5833 70.087 50.5133 70.367 50.3033 70.549C49.9953 70.843 49.6733 70.899 49.2253 70.899C48.4693 70.899 48.1193 70.577 48.1193 70.073C48.1193 69.527 48.4693 69.233 49.1973 69.233H50.5833V69.625ZM60.4698 68.659C60.4698 67.441 60.4138 66.307 59.7138 65.593C59.3078 65.173 58.6778 64.935 57.9498 64.935C57.2078 64.935 56.6478 65.131 56.1858 65.663V62.345H54.3658V72.313H56.1298V71.627C56.6338 72.187 57.1658 72.397 57.9498 72.397C58.6638 72.397 59.3078 72.159 59.7138 71.739C60.4138 71.025 60.4698 69.891 60.4698 68.659ZM58.6498 68.659C58.6498 69.835 58.5098 70.759 57.4178 70.759C56.3258 70.759 56.1858 69.835 56.1858 68.659C56.1858 67.483 56.3258 66.573 57.4178 66.573C58.5098 66.573 58.6498 67.483 58.6498 68.659ZM64.0198 72.313V65.229H62.1998V72.313H64.0198ZM64.0338 63.773V62.289H62.1718V63.773H64.0338ZM69.1493 72.313V70.773H68.4493C67.9873 70.773 67.8053 70.549 67.8053 70.115V62.345H65.9853V70.227C65.9853 71.263 66.6153 72.313 68.1133 72.313H69.1493ZM72.428 72.313V65.229H70.608V72.313H72.428ZM72.442 63.773V62.289H70.58V63.773H72.442ZM80.2735 72.313V62.345H78.4535V65.663C77.9775 65.131 77.4175 64.935 76.6755 64.935C75.9475 64.935 75.3175 65.173 74.9115 65.593C74.2115 66.307 74.1555 67.441 74.1555 68.659C74.1555 69.891 74.2115 71.025 74.9115 71.739C75.3175 72.159 75.9615 72.397 76.6895 72.397C77.4595 72.397 77.9915 72.187 78.4955 71.627V72.313H80.2735ZM78.4535 68.659C78.4535 69.835 78.2995 70.759 77.2075 70.759C76.1155 70.759 75.9755 69.835 75.9755 68.659C75.9755 67.483 76.1155 66.573 77.2075 66.573C78.2995 66.573 78.4535 67.483 78.4535 68.659ZM87.8271 72.313V67.511C87.8271 65.803 86.7771 64.935 84.7191 64.935C83.5011 64.935 82.8151 65.187 82.1011 65.971L83.2491 67.105C83.6411 66.657 83.9911 66.475 84.6491 66.475C85.6151 66.475 86.0071 66.825 86.0071 67.623V67.987H84.3131C82.5911 67.987 81.7931 68.939 81.7931 70.101C81.7931 70.745 82.0031 71.333 82.3951 71.739C82.8151 72.159 83.4311 72.383 84.2571 72.383C85.0971 72.383 85.5591 72.173 86.0491 71.683V72.313H87.8271ZM86.0071 69.625C86.0071 70.087 85.9371 70.367 85.7271 70.549C85.4191 70.843 85.0971 70.899 84.6491 70.899C83.8931 70.899 83.5431 70.577 83.5431 70.073C83.5431 69.527 83.8931 69.233 84.6211 69.233H86.0071V69.625ZM95.5996 72.313V62.345H93.7796V65.663C93.3036 65.131 92.7436 64.935 92.0016 64.935C91.2736 64.935 90.6436 65.173 90.2376 65.593C89.5376 66.307 89.4816 67.441 89.4816 68.659C89.4816 69.891 89.5376 71.025 90.2376 71.739C90.6436 72.159 91.2876 72.397 92.0156 72.397C92.7856 72.397 93.3176 72.187 93.8216 71.627V72.313H95.5996ZM93.7796 68.659C93.7796 69.835 93.6256 70.759 92.5336 70.759C91.4416 70.759 91.3016 69.835 91.3016 68.659C91.3016 67.483 91.4416 66.573 92.5336 66.573C93.6256 66.573 93.7796 67.483 93.7796 68.659ZM103.629 69.233V68.463C103.629 66.391 102.481 64.935 100.451 64.935C98.5613 64.935 97.2733 66.279 97.2733 68.659C97.2733 71.613 98.9253 72.397 100.647 72.397C101.963 72.397 102.677 72.005 103.419 71.249L102.313 70.171C101.851 70.619 101.459 70.857 100.661 70.857C99.6253 70.857 99.0653 70.185 99.0653 69.233H103.629ZM101.837 67.987H99.0653C99.0793 67.665 99.1073 67.469 99.2333 67.203C99.4293 66.769 99.8353 66.447 100.451 66.447C101.067 66.447 101.473 66.769 101.669 67.203C101.795 67.469 101.823 67.665 101.837 67.987ZM114.077 72.313V67.511C114.077 65.803 113.027 64.935 110.969 64.935C109.751 64.935 109.065 65.187 108.351 65.971L109.499 67.105C109.891 66.657 110.241 66.475 110.899 66.475C111.865 66.475 112.257 66.825 112.257 67.623V67.987H110.563C108.841 67.987 108.043 68.939 108.043 70.101C108.043 70.745 108.253 71.333 108.645 71.739C109.065 72.159 109.681 72.383 110.507 72.383C111.347 72.383 111.809 72.173 112.299 71.683V72.313H114.077ZM112.257 69.625C112.257 70.087 112.187 70.367 111.977 70.549C111.669 70.843 111.347 70.899 110.899 70.899C110.143 70.899 109.793 70.577 109.793 70.073C109.793 69.527 110.143 69.233 110.871 69.233H112.257V69.625ZM121.346 71.403L120.114 70.185C119.736 70.591 119.414 70.759 118.938 70.759C118.504 70.759 118.168 70.605 117.902 70.283C117.622 69.933 117.496 69.429 117.496 68.659C117.496 67.889 117.622 67.399 117.902 67.049C118.168 66.727 118.504 66.573 118.938 66.573C119.414 66.573 119.736 66.741 120.114 67.147L121.346 65.915C120.702 65.243 119.946 64.935 118.938 64.935C117.482 64.935 115.676 65.705 115.676 68.659C115.676 71.613 117.482 72.397 118.938 72.397C119.946 72.397 120.702 72.075 121.346 71.403ZM128.744 72.313V65.019H126.924V69.429C126.924 70.423 126.28 70.759 125.706 70.759C125.132 70.759 124.502 70.423 124.502 69.429V65.019H122.682V69.681C122.682 70.479 122.836 71.165 123.424 71.753C123.83 72.159 124.418 72.397 125.146 72.397C125.818 72.397 126.49 72.145 126.966 71.641V72.313H128.744ZM141.096 72.313V67.651C141.096 66.853 140.886 66.167 140.298 65.579C139.892 65.173 139.234 64.935 138.506 64.935C137.596 64.935 136.938 65.215 136.322 65.859C135.86 65.229 135.202 64.935 134.39 64.935C133.718 64.935 133.046 65.201 132.57 65.691V65.019H130.792V72.313H132.612V67.903C132.612 66.909 133.256 66.573 133.83 66.573C134.404 66.573 135.034 66.909 135.034 67.903V72.313H136.854V67.861C136.854 66.909 137.512 66.573 138.072 66.573C138.646 66.573 139.276 66.909 139.276 67.903V72.313H141.096ZM149.033 72.313V65.019H147.213V69.429C147.213 70.423 146.569 70.759 145.995 70.759C145.421 70.759 144.791 70.423 144.791 69.429V65.019H142.971V69.681C142.971 70.479 143.125 71.165 143.713 71.753C144.119 72.159 144.707 72.397 145.435 72.397C146.107 72.397 146.779 72.145 147.255 71.641V72.313H149.033ZM154.175 72.313V70.773H153.475C153.013 70.773 152.831 70.549 152.831 70.115V62.345H151.011V70.227C151.011 71.263 151.641 72.313 153.139 72.313H154.175ZM161.149 72.313V67.511C161.149 65.803 160.099 64.935 158.041 64.935C156.823 64.935 156.137 65.187 155.423 65.971L156.571 67.105C156.963 66.657 157.313 66.475 157.971 66.475C158.937 66.475 159.329 66.825 159.329 67.623V67.987H157.635C155.913 67.987 155.115 68.939 155.115 70.101C155.115 70.745 155.325 71.333 155.717 71.739C156.137 72.159 156.753 72.383 157.579 72.383C158.419 72.383 158.881 72.173 159.371 71.683V72.313H161.149ZM159.329 69.625C159.329 70.087 159.259 70.367 159.049 70.549C158.741 70.843 158.419 70.899 157.971 70.899C157.215 70.899 156.865 70.577 156.865 70.073C156.865 69.527 157.215 69.233 157.943 69.233H159.329V69.625ZM168.922 72.313V62.345H167.102V65.663C166.626 65.131 166.066 64.935 165.324 64.935C164.596 64.935 163.966 65.173 163.56 65.593C162.86 66.307 162.804 67.441 162.804 68.659C162.804 69.891 162.86 71.025 163.56 71.739C163.966 72.159 164.61 72.397 165.338 72.397C166.108 72.397 166.64 72.187 167.144 71.627V72.313H168.922ZM167.102 68.659C167.102 69.835 166.948 70.759 165.856 70.759C164.764 70.759 164.624 69.835 164.624 68.659C164.624 67.483 164.764 66.573 165.856 66.573C166.948 66.573 167.102 67.483 167.102 68.659ZM176.476 72.313V67.511C176.476 65.803 175.426 64.935 173.368 64.935C172.15 64.935 171.464 65.187 170.75 65.971L171.898 67.105C172.29 66.657 172.64 66.475 173.298 66.475C174.264 66.475 174.656 66.825 174.656 67.623V67.987H172.962C171.24 67.987 170.442 68.939 170.442 70.101C170.442 70.745 170.652 71.333 171.044 71.739C171.464 72.159 172.08 72.383 172.906 72.383C173.746 72.383 174.208 72.173 174.698 71.683V72.313H176.476ZM174.656 69.625C174.656 70.087 174.586 70.367 174.376 70.549C174.068 70.843 173.746 70.899 173.298 70.899C172.542 70.899 172.192 70.577 172.192 70.073C172.192 69.527 172.542 69.233 173.27 69.233H174.656V69.625Z" fill="#1F073B"/>
<path d="M7.80945 240.222H463.708M7.80945 120.712H463.708M7.80945 1.20166H463.708" stroke="url(#paint0_linear_1_2107)"/>
<path d="M7.07921 240.417C8.91136 234.48 15.5353 223.355 27.3738 222.605C42.1719 221.667 59.5068 218.855 71.7681 184.167C78.9558 165.416 87.1773 147.83 90.3715 140.103C96.7135 124.762 110.243 107.29 119.968 149.478C130.802 196.48 123.773 285.418 133.075 289.168C134.714 289.829 136.001 288.823 137.11 286.791C139.699 281.43 141.392 270.556 144.596 262.999C146.267 258.81 148.359 255.508 151.255 254.48C170.281 247.73 169.436 228.048 177.892 203.854C190.999 166.354 204.528 114.79 222.709 115.728C240.889 116.665 240.467 147.603 248.5 140.103C256.533 132.603 255.265 93.2273 277.251 90.4148C299.236 87.6022 304.733 63.2268 306.847 57.6017C308.961 51.9766 321.658 22.2937 330.947 57.6017C335.139 73.5394 336.866 90.4148 346.59 90.4148C356.315 90.4148 356.299 50.0361 370.309 50.036C389.335 50.0359 374.794 8.41086 394.284 8.41086C411 8.41085 414.5 94.309 466.5 49.5002L466.922 53.9077C416.5 101 408.5 13.6435 393.861 13.6435C376.464 13.6435 392.294 53.9081 372 53.9081C357.99 53.9081 359.569 94.3459 347.013 94.3459C334.457 94.3459 333.409 77.087 329.255 61.135C320.606 27.9241 311.088 54.0075 308.961 59.6254C306.833 65.2432 300.934 90.0711 278.942 92.8085C256.949 95.5459 259.915 134.602 248.509 143.168C239.874 149.652 237.93 118.704 222.777 118.704C204.579 118.704 190.944 168.215 177.747 205.671C169.233 229.836 170.031 248.514 150.988 255.199C148.253 256.16 146.228 259.149 144.596 262.999C141.458 270.864 139.805 281.854 137.11 286.791C135.917 289.262 134.534 290.562 132.724 289.825C123.432 286.043 130.675 197.129 119.954 150.091C110.332 107.87 96.7599 125.295 90.3809 140.615C87.168 148.33 78.9042 165.889 71.6713 184.614C59.3264 219.26 41.9847 222.014 27.1844 222.901C15.3441 223.61 8.69339 235.719 6.84692 241.65L7.07921 240.417Z" fill="#6131B4" stroke="#6131B4" stroke-width="2" stroke-linecap="round" stroke-linejoin="round"/>
<path d="M6.84692 241.242C12.3448 235.634 19.1113 231.468 27.1467 230.961C35.182 230.454 46.1777 228.156 58.865 221.614C69.1544 216.307 74.9356 202.92 83.3938 195.443C95.6925 184.57 113.421 192.638 119.764 226.287C128.922 274.864 122.725 309.474 132.029 313.213C139.773 316.325 138.795 285.172 149.791 285.172C176.229 285.172 169.116 237.246 182.355 245.915C193.774 253.392 196.734 229.091 214.073 227.222C217.03 226.903 230.473 225.352 239.871 240.307C249.269 255.262 251.322 240.307 256.787 234.699C262.68 224.892 263.854 260.87 267.783 245.915C273.922 222.548 288.506 189.834 306.268 183.292C322.12 177.453 322.734 199.708 336.295 202.92C348.136 205.725 355.749 183.292 365.476 183.292C375.202 183.292 372.665 197.311 387.89 170.206C395.079 157.407 417.5 164.5 422 179.5C428.884 202.445 437 201.5 463 200.5" stroke="#5B6067" stroke-width="2" stroke-linecap="round" stroke-linejoin="round"/>
<ellipse cx="466.715" cy="52.9999" rx="6.68422" ry="6.58824" fill="#6131B4"/>
<ellipse opacity="0.3" cx="466.716" cy="52.9997" rx="11.4587" ry="11.2941" fill="#6131B4"/>
<ellipse opacity="0.1" cx="466.716" cy="53" rx="16.2331" ry="16" fill="#6131B4"/>
<ellipse cx="465.06" cy="201" rx="5.01316" ry="4.94118" fill="#5B6067"/>
<ellipse opacity="0.3" cx="465.061" cy="201" rx="8.594" ry="8.47059" fill="#5B6067"/>
<ellipse opacity="0.1" cx="465.061" cy="201" rx="12.1748" ry="12" fill="#5B6067"/>
<path d="M95.3973 339H90.0933V330.456H95.3973V331.272H91.0053V334.284H94.7493V335.1H91.0053V338.184H95.3973V339ZM101.393 337.272C101.393 338.412 100.433 339.072 98.9926 339.072C97.9846 339.072 97.2046 338.844 96.5686 338.22L97.1446 337.644C97.6006 338.124 98.2486 338.328 98.9806 338.328C99.9646 338.328 100.553 337.98 100.553 337.284C100.553 336.756 100.265 336.48 99.5686 336.42L98.5966 336.336C97.4446 336.24 96.8326 335.736 96.8326 334.752C96.8326 333.672 97.7326 333.024 99.0046 333.024C99.8566 333.024 100.589 333.228 101.129 333.66L100.565 334.224C100.145 333.9 99.6046 333.756 98.9926 333.756C98.1286 333.756 97.6726 334.116 97.6726 334.728C97.6726 335.256 97.9966 335.52 98.7286 335.592L99.6526 335.676C100.685 335.772 101.393 336.156 101.393 337.272ZM107.287 337.272C107.287 338.412 106.327 339.072 104.887 339.072C103.879 339.072 103.099 338.844 102.463 338.22L103.039 337.644C103.495 338.124 104.143 338.328 104.875 338.328C105.859 338.328 106.447 337.98 106.447 337.284C106.447 336.756 106.159 336.48 105.463 336.42L104.491 336.336C103.339 336.24 102.727 335.736 102.727 334.752C102.727 333.672 103.627 333.024 104.899 333.024C105.751 333.024 106.483 333.228 107.023 333.66L106.459 334.224C106.039 333.9 105.499 333.756 104.887 333.756C104.023 333.756 103.567 334.116 103.567 334.728C103.567 335.256 103.891 335.52 104.623 335.592L105.547 335.676C106.579 335.772 107.287 336.156 107.287 337.272ZM113.504 336.276H109.52C109.52 337.572 110.12 338.316 111.26 338.316C111.944 338.316 112.34 338.112 112.808 337.644L113.396 338.16C112.796 338.76 112.232 339.072 111.236 339.072C109.664 339.072 108.656 338.136 108.656 336.048C108.656 334.128 109.58 333.024 111.08 333.024C112.616 333.024 113.504 334.116 113.504 335.892V336.276ZM112.652 335.628C112.616 335.148 112.604 334.956 112.46 334.644C112.208 334.104 111.716 333.756 111.08 333.756C110.444 333.756 109.952 334.104 109.7 334.644C109.556 334.956 109.544 335.148 109.52 335.628H112.652ZM122.856 336.276H118.872C118.872 337.572 119.472 338.316 120.612 338.316C121.296 338.316 121.692 338.112 122.16 337.644L122.748 338.16C122.148 338.76 121.584 339.072 120.588 339.072C119.016 339.072 118.008 338.136 118.008 336.048C118.008 334.128 118.932 333.024 120.432 333.024C121.968 333.024 122.856 334.116 122.856 335.892V336.276ZM122.004 335.628C121.968 335.148 121.956 334.956 121.812 334.644C121.56 334.104 121.068 333.756 120.432 333.756C119.796 333.756 119.304 334.104 119.052 334.644C118.908 334.956 118.896 335.148 118.872 335.628H122.004ZM121.956 330.036L120.696 331.872H119.868L120.96 330.036H121.956ZM132.267 339H131.415V338.34C130.995 338.82 130.407 339.072 129.747 339.072C129.111 339.072 128.583 338.88 128.223 338.52C127.803 338.112 127.623 337.548 127.623 336.864V333.096H128.487V336.732C128.487 337.776 129.039 338.304 129.927 338.304C130.815 338.304 131.403 337.764 131.403 336.732V333.096H132.267V339ZM142.87 339H142.006V335.364C142.006 334.32 141.442 333.792 140.554 333.792C139.69 333.792 139.078 334.332 139.078 335.268V339H138.214V335.364C138.214 334.32 137.65 333.792 136.762 333.792C135.874 333.792 135.286 334.332 135.286 335.364V339H134.422V333.096H135.286V333.744C135.706 333.264 136.294 333.024 136.954 333.024C137.77 333.024 138.406 333.36 138.766 334.008C139.222 333.36 139.882 333.024 140.71 333.024C141.346 333.024 141.874 333.228 142.234 333.576C142.654 333.984 142.87 334.536 142.87 335.22V339ZM152.313 339.18C152.313 340.644 151.401 341.712 149.853 341.712C148.965 341.712 148.473 341.484 147.849 340.92L148.413 340.368C148.845 340.752 149.145 340.956 149.829 340.956C150.969 340.956 151.449 340.152 151.449 339.144V338.22C150.969 338.832 150.429 338.988 149.793 338.988C149.193 338.988 148.677 338.772 148.365 338.46C147.777 337.872 147.645 336.96 147.645 336C147.645 335.04 147.777 334.128 148.365 333.54C148.677 333.228 149.205 333.024 149.805 333.024C150.453 333.024 150.981 333.168 151.461 333.792V333.096H152.313V339.18ZM151.449 336C151.449 334.896 151.269 333.792 149.985 333.792C148.701 333.792 148.509 334.896 148.509 336C148.509 337.104 148.701 338.208 149.985 338.208C151.269 338.208 151.449 337.104 151.449 336ZM158.408 333.576L157.772 334.224C157.448 333.9 157.208 333.792 156.752 333.792C155.888 333.792 155.336 334.476 155.336 335.376V339H154.472V333.096H155.336V333.816C155.66 333.324 156.308 333.024 156.992 333.024C157.556 333.024 157.988 333.156 158.408 333.576ZM163.618 339H162.754V338.436C162.286 338.904 161.842 339.072 161.05 339.072C160.234 339.072 159.79 338.928 159.382 338.532C159.082 338.244 158.938 337.8 158.938 337.332C158.938 336.288 159.67 335.628 160.99 335.628H162.754V335.064C162.754 334.212 162.334 333.768 161.242 333.768C160.498 333.768 160.114 333.96 159.754 334.452L159.166 333.912C159.682 333.228 160.282 333.024 161.254 333.024C162.85 333.024 163.618 333.72 163.618 334.992V339ZM162.754 336.912V336.276H161.11C160.222 336.276 159.778 336.624 159.778 337.32C159.778 338.004 160.198 338.328 161.146 338.328C161.638 338.328 162.07 338.28 162.454 337.932C162.658 337.74 162.754 337.404 162.754 336.912ZM162.838 330.036L161.578 331.872H160.75L161.842 330.036H162.838ZM168.038 333.756H166.778V339H165.914V333.756H165.158V333.096H165.914V332.016C165.914 331.14 166.406 330.432 167.414 330.432H168.038V331.176H167.57C167.018 331.176 166.778 331.5 166.778 332.04V333.096H168.038V333.756ZM170.36 339H169.496V333.096H170.36V339ZM170.42 331.416H169.448V330.444H170.42V331.416ZM176.755 338.196C176.143 338.856 175.627 339.072 174.811 339.072C173.323 339.072 172.195 338.064 172.195 336.048C172.195 334.032 173.323 333.024 174.811 333.024C175.627 333.024 176.143 333.24 176.755 333.9L176.167 334.452C175.723 333.96 175.375 333.792 174.811 333.792C174.235 333.792 173.755 334.02 173.443 334.464C173.167 334.848 173.059 335.304 173.059 336.048C173.059 336.792 173.167 337.248 173.443 337.632C173.755 338.076 174.235 338.304 174.811 338.304C175.375 338.304 175.723 338.124 176.167 337.632L176.755 338.196ZM182.738 336.048C182.738 336.96 182.618 337.788 182.018 338.4C181.61 338.82 181.046 339.072 180.326 339.072C179.606 339.072 179.042 338.82 178.634 338.4C178.034 337.788 177.914 336.96 177.914 336.048C177.914 335.136 178.034 334.296 178.634 333.696C179.042 333.276 179.606 333.024 180.326 333.024C181.046 333.024 181.61 333.276 182.018 333.696C182.618 334.296 182.738 335.136 182.738 336.048ZM181.874 336.048C181.874 335.376 181.838 334.656 181.406 334.224C181.118 333.936 180.746 333.792 180.326 333.792C179.906 333.792 179.546 333.936 179.258 334.224C178.826 334.656 178.778 335.376 178.778 336.048C178.778 336.708 178.814 337.428 179.258 337.872C179.546 338.16 179.906 338.304 180.326 338.304C180.746 338.304 181.118 338.16 181.406 337.872C181.838 337.428 181.874 336.708 181.874 336.048ZM188.442 339H187.578V333.096H188.442V339ZM188.502 331.416H187.53V330.444H188.502V331.416ZM192.701 339H192.077C191.045 339 190.577 338.328 190.577 337.428V330.456H191.441V337.392C191.441 337.968 191.633 338.256 192.233 338.256H192.701V339ZM198.713 339H197.861V338.34C197.441 338.82 196.853 339.072 196.193 339.072C195.557 339.072 195.029 338.88 194.669 338.52C194.249 338.112 194.069 337.548 194.069 336.864V333.096H194.933V336.732C194.933 337.776 195.485 338.304 196.373 338.304C197.261 338.304 197.849 337.764 197.849 336.732V333.096H198.713V339ZM205.127 337.272C205.127 338.412 204.167 339.072 202.727 339.072C201.719 339.072 200.939 338.844 200.303 338.22L200.879 337.644C201.335 338.124 201.983 338.328 202.715 338.328C203.699 338.328 204.287 337.98 204.287 337.284C204.287 336.756 203.999 336.48 203.303 336.42L202.331 336.336C201.179 336.24 200.567 335.736 200.567 334.752C200.567 333.672 201.467 333.024 202.739 333.024C203.591 333.024 204.323 333.228 204.863 333.66L204.299 334.224C203.879 333.9 203.339 333.756 202.727 333.756C201.863 333.756 201.407 334.116 201.407 334.728C201.407 335.256 201.731 335.52 202.463 335.592L203.387 335.676C204.419 335.772 205.127 336.156 205.127 337.272ZM208.971 339H208.359C207.351 339 206.847 338.292 206.847 337.416V333.756H206.103V333.096H206.847V331.284H207.711V333.096H208.971V333.756H207.711V337.392C207.711 337.932 207.963 338.256 208.515 338.256H208.971V339ZM214.623 333.576L213.987 334.224C213.663 333.9 213.423 333.792 212.967 333.792C212.103 333.792 211.551 334.476 211.551 335.376V339H210.687V333.096H211.551V333.816C211.875 333.324 212.523 333.024 213.207 333.024C213.771 333.024 214.203 333.156 214.623 333.576ZM219.833 339H218.969V338.436C218.501 338.904 218.057 339.072 217.265 339.072C216.449 339.072 216.005 338.928 215.597 338.532C215.297 338.244 215.153 337.8 215.153 337.332C215.153 336.288 215.885 335.628 217.205 335.628H218.969V335.064C218.969 334.212 218.549 333.768 217.457 333.768C216.713 333.768 216.329 333.96 215.969 334.452L215.381 333.912C215.897 333.228 216.497 333.024 217.469 333.024C219.065 333.024 219.833 333.72 219.833 334.992V339ZM218.969 336.912V336.276H217.325C216.437 336.276 215.993 336.624 215.993 337.32C215.993 338.004 216.413 338.328 217.361 338.328C217.853 338.328 218.285 338.28 218.669 337.932C218.873 337.74 218.969 337.404 218.969 336.912ZM224.205 339H223.593C222.585 339 222.081 338.292 222.081 337.416V333.756H221.337V333.096H222.081V331.284H222.945V333.096H224.205V333.756H222.945V337.392C222.945 337.932 223.197 338.256 223.749 338.256H224.205V339ZM226.786 339H225.922V333.096H226.786V339ZM226.846 331.416H225.874V330.444H226.846V331.416ZM233.097 333.096L230.925 339H230.157L227.997 333.096H228.933L230.541 337.836L232.161 333.096H233.097ZM238.707 336.048C238.707 336.96 238.587 337.788 237.987 338.4C237.579 338.82 237.015 339.072 236.295 339.072C235.575 339.072 235.011 338.82 234.603 338.4C234.003 337.788 233.883 336.96 233.883 336.048C233.883 335.136 234.003 334.296 234.603 333.696C235.011 333.276 235.575 333.024 236.295 333.024C237.015 333.024 237.579 333.276 237.987 333.696C238.587 334.296 238.707 335.136 238.707 336.048ZM237.843 336.048C237.843 335.376 237.807 334.656 237.375 334.224C237.087 333.936 236.715 333.792 236.295 333.792C235.875 333.792 235.515 333.936 235.227 334.224C234.795 334.656 234.747 335.376 234.747 336.048C234.747 336.708 234.783 337.428 235.227 337.872C235.515 338.16 235.875 338.304 236.295 338.304C236.715 338.304 237.087 338.16 237.375 337.872C237.807 337.428 237.843 336.708 237.843 336.048ZM248.071 336.276H244.087C244.087 337.572 244.687 338.316 245.827 338.316C246.511 338.316 246.907 338.112 247.375 337.644L247.963 338.16C247.363 338.76 246.799 339.072 245.803 339.072C244.231 339.072 243.223 338.136 243.223 336.048C243.223 334.128 244.147 333.024 245.647 333.024C247.183 333.024 248.071 334.116 248.071 335.892V336.276ZM247.219 335.628C247.183 335.148 247.171 334.956 247.027 334.644C246.775 334.104 246.283 333.756 245.647 333.756C245.011 333.756 244.519 334.104 244.267 334.644C244.123 334.956 244.111 335.148 244.087 335.628H247.219ZM257.542 339H256.678V335.364C256.678 334.32 256.114 333.792 255.226 333.792C254.338 333.792 253.762 334.332 253.762 335.364V339H252.898V333.096H253.762V333.744C254.182 333.264 254.758 333.024 255.418 333.024C256.054 333.024 256.57 333.216 256.93 333.576C257.35 333.984 257.542 334.536 257.542 335.22V339ZM263.849 339H262.985V338.436C262.517 338.904 262.073 339.072 261.281 339.072C260.465 339.072 260.021 338.928 259.613 338.532C259.313 338.244 259.169 337.8 259.169 337.332C259.169 336.288 259.901 335.628 261.221 335.628H262.985V335.064C262.985 334.212 262.565 333.768 261.473 333.768C260.729 333.768 260.345 333.96 259.985 334.452L259.397 333.912C259.913 333.228 260.513 333.024 261.485 333.024C263.081 333.024 263.849 333.72 263.849 334.992V339ZM262.985 336.912V336.276H261.341C260.453 336.276 260.009 336.624 260.009 337.32C260.009 338.004 260.429 338.328 261.377 338.328C261.869 338.328 262.301 338.28 262.685 337.932C262.889 337.74 262.985 337.404 262.985 336.912ZM263.465 331.104C262.925 331.656 262.601 331.716 262.325 331.716C261.989 331.716 261.761 331.596 261.473 331.428C261.245 331.296 261.041 331.188 260.801 331.188C260.597 331.188 260.453 331.212 260.093 331.572L259.649 331.14C260.201 330.588 260.501 330.528 260.789 330.528C261.137 330.528 261.341 330.624 261.641 330.816C261.893 330.96 262.073 331.056 262.313 331.056C262.505 331.056 262.661 331.032 263.021 330.672L263.465 331.104ZM270.465 336.048C270.465 336.96 270.345 337.788 269.745 338.4C269.337 338.82 268.773 339.072 268.053 339.072C267.333 339.072 266.769 338.82 266.361 338.4C265.761 337.788 265.641 336.96 265.641 336.048C265.641 335.136 265.761 334.296 266.361 333.696C266.769 333.276 267.333 333.024 268.053 333.024C268.773 333.024 269.337 333.276 269.745 333.696C270.345 334.296 270.465 335.136 270.465 336.048ZM269.601 336.048C269.601 335.376 269.565 334.656 269.133 334.224C268.845 333.936 268.473 333.792 268.053 333.792C267.633 333.792 267.273 333.936 266.985 334.224C266.553 334.656 266.505 335.376 266.505 336.048C266.505 336.708 266.541 337.428 266.985 337.872C267.273 338.16 267.633 338.304 268.053 338.304C268.473 338.304 268.845 338.16 269.133 337.872C269.565 337.428 269.601 336.708 269.601 336.048ZM279.24 333.576L278.604 334.224C278.28 333.9 278.04 333.792 277.584 333.792C276.72 333.792 276.168 334.476 276.168 335.376V339H275.304V333.096H276.168V333.816C276.492 333.324 277.14 333.024 277.824 333.024C278.388 333.024 278.82 333.156 279.24 333.576ZM284.516 336.276H280.532C280.532 337.572 281.132 338.316 282.272 338.316C282.956 338.316 283.352 338.112 283.82 337.644L284.408 338.16C283.808 338.76 283.244 339.072 282.248 339.072C280.676 339.072 279.668 338.136 279.668 336.048C279.668 334.128 280.592 333.024 282.092 333.024C283.628 333.024 284.516 334.116 284.516 335.892V336.276ZM283.664 335.628C283.628 335.148 283.616 334.956 283.472 334.644C283.22 334.104 282.728 333.756 282.092 333.756C281.456 333.756 280.964 334.104 280.712 334.644C280.568 334.956 280.556 335.148 280.532 335.628H283.664ZM291.047 336.048C291.047 336.996 290.915 337.956 290.327 338.556C290.015 338.868 289.499 339.072 288.887 339.072C288.239 339.072 287.711 338.916 287.219 338.304V341.64H286.355V333.096H287.219V333.792C287.711 333.18 288.227 333.024 288.887 333.024C289.499 333.024 290.015 333.228 290.327 333.54C290.915 334.128 291.047 335.1 291.047 336.048ZM290.183 336.048C290.183 334.896 289.991 333.792 288.707 333.792C287.411 333.792 287.219 334.896 287.219 336.048C287.219 337.2 287.411 338.304 288.707 338.304C289.991 338.304 290.183 337.2 290.183 336.048ZM296.83 333.576L296.194 334.224C295.87 333.9 295.63 333.792 295.174 333.792C294.31 333.792 293.758 334.476 293.758 335.376V339H292.894V333.096H293.758V333.816C294.082 333.324 294.73 333.024 295.414 333.024C295.978 333.024 296.41 333.156 296.83 333.576ZM302.106 336.276H298.122C298.122 337.572 298.722 338.316 299.862 338.316C300.546 338.316 300.942 338.112 301.41 337.644L301.998 338.16C301.398 338.76 300.834 339.072 299.838 339.072C298.266 339.072 297.258 338.136 297.258 336.048C297.258 334.128 298.182 333.024 299.682 333.024C301.218 333.024 302.106 334.116 302.106 335.892V336.276ZM301.254 335.628C301.218 335.148 301.206 334.956 301.062 334.644C300.81 334.104 300.318 333.756 299.682 333.756C299.046 333.756 298.554 334.104 298.302 334.644C298.158 334.956 298.146 335.148 298.122 335.628H301.254ZM308.205 337.272C308.205 338.412 307.245 339.072 305.805 339.072C304.797 339.072 304.017 338.844 303.381 338.22L303.957 337.644C304.413 338.124 305.061 338.328 305.793 338.328C306.777 338.328 307.365 337.98 307.365 337.284C307.365 336.756 307.077 336.48 306.381 336.42L305.409 336.336C304.257 336.24 303.645 335.736 303.645 334.752C303.645 333.672 304.545 333.024 305.817 333.024C306.669 333.024 307.401 333.228 307.941 333.66L307.377 334.224C306.957 333.9 306.417 333.756 305.805 333.756C304.941 333.756 304.485 334.116 304.485 334.728C304.485 335.256 304.809 335.52 305.541 335.592L306.465 335.676C307.497 335.772 308.205 336.156 308.205 337.272ZM314.422 336.276H310.438C310.438 337.572 311.038 338.316 312.178 338.316C312.862 338.316 313.258 338.112 313.726 337.644L314.314 338.16C313.714 338.76 313.15 339.072 312.154 339.072C310.582 339.072 309.574 338.136 309.574 336.048C309.574 334.128 310.498 333.024 311.998 333.024C313.534 333.024 314.422 334.116 314.422 335.892V336.276ZM313.57 335.628C313.534 335.148 313.522 334.956 313.378 334.644C313.126 334.104 312.634 333.756 311.998 333.756C311.362 333.756 310.87 334.104 310.618 334.644C310.474 334.956 310.462 335.148 310.438 335.628H313.57ZM320.906 339H320.042V335.364C320.042 334.32 319.478 333.792 318.59 333.792C317.702 333.792 317.126 334.332 317.126 335.364V339H316.262V333.096H317.126V333.744C317.546 333.264 318.122 333.024 318.782 333.024C319.418 333.024 319.934 333.216 320.294 333.576C320.714 333.984 320.906 334.536 320.906 335.22V339ZM325.268 339H324.656C323.648 339 323.144 338.292 323.144 337.416V333.756H322.4V333.096H323.144V331.284H324.008V333.096H325.268V333.756H324.008V337.392C324.008 337.932 324.26 338.256 324.812 338.256H325.268V339ZM331.138 339H330.274V338.436C329.806 338.904 329.362 339.072 328.57 339.072C327.754 339.072 327.31 338.928 326.902 338.532C326.602 338.244 326.458 337.8 326.458 337.332C326.458 336.288 327.19 335.628 328.51 335.628H330.274V335.064C330.274 334.212 329.854 333.768 328.762 333.768C328.018 333.768 327.634 333.96 327.274 334.452L326.686 333.912C327.202 333.228 327.802 333.024 328.774 333.024C330.37 333.024 331.138 333.72 331.138 334.992V339ZM330.274 336.912V336.276H328.63C327.742 336.276 327.298 336.624 327.298 337.32C327.298 338.004 327.718 338.328 328.666 338.328C329.158 338.328 329.59 338.28 329.974 337.932C330.178 337.74 330.274 337.404 330.274 336.912ZM340.814 339H339.962V338.34C339.542 338.82 338.954 339.072 338.294 339.072C337.658 339.072 337.13 338.88 336.77 338.52C336.35 338.112 336.17 337.548 336.17 336.864V333.096H337.034V336.732C337.034 337.776 337.586 338.304 338.474 338.304C339.362 338.304 339.95 337.764 339.95 336.732V333.096H340.814V339ZM351.417 339H350.553V335.364C350.553 334.32 349.989 333.792 349.101 333.792C348.237 333.792 347.625 334.332 347.625 335.268V339H346.761V335.364C346.761 334.32 346.197 333.792 345.309 333.792C344.421 333.792 343.833 334.332 343.833 335.364V339H342.969V333.096H343.833V333.744C344.253 333.264 344.841 333.024 345.501 333.024C346.317 333.024 346.953 333.36 347.313 334.008C347.769 333.36 348.429 333.024 349.257 333.024C349.893 333.024 350.421 333.228 350.781 333.576C351.201 333.984 351.417 334.536 351.417 335.22V339ZM357.727 339H356.863V338.436C356.395 338.904 355.951 339.072 355.159 339.072C354.343 339.072 353.899 338.928 353.491 338.532C353.191 338.244 353.047 337.8 353.047 337.332C353.047 336.288 353.779 335.628 355.099 335.628H356.863V335.064C356.863 334.212 356.443 333.768 355.351 333.768C354.607 333.768 354.223 333.96 353.863 334.452L353.275 333.912C353.791 333.228 354.391 333.024 355.363 333.024C356.959 333.024 357.727 333.72 357.727 334.992V339ZM356.863 336.912V336.276H355.219C354.331 336.276 353.887 336.624 353.887 337.32C353.887 338.004 354.307 338.328 355.255 338.328C355.747 338.328 356.179 338.28 356.563 337.932C356.767 337.74 356.863 337.404 356.863 336.912ZM367.512 336.048C367.512 336.996 367.38 337.956 366.792 338.556C366.48 338.868 365.964 339.072 365.352 339.072C364.704 339.072 364.176 338.916 363.684 338.304V341.64H362.82V333.096H363.684V333.792C364.176 333.18 364.692 333.024 365.352 333.024C365.964 333.024 366.48 333.228 366.792 333.54C367.38 334.128 367.512 335.1 367.512 336.048ZM366.648 336.048C366.648 334.896 366.456 333.792 365.172 333.792C363.876 333.792 363.684 334.896 363.684 336.048C363.684 337.2 363.876 338.304 365.172 338.304C366.456 338.304 366.648 337.2 366.648 336.048ZM373.295 333.576L372.659 334.224C372.335 333.9 372.095 333.792 371.639 333.792C370.775 333.792 370.223 334.476 370.223 335.376V339H369.359V333.096H370.223V333.816C370.547 333.324 371.195 333.024 371.879 333.024C372.443 333.024 372.875 333.156 373.295 333.576ZM378.559 336.048C378.559 336.96 378.439 337.788 377.839 338.4C377.431 338.82 376.867 339.072 376.147 339.072C375.427 339.072 374.863 338.82 374.455 338.4C373.855 337.788 373.735 336.96 373.735 336.048C373.735 335.136 373.855 334.296 374.455 333.696C374.863 333.276 375.427 333.024 376.147 333.024C376.867 333.024 377.431 333.276 377.839 333.696C378.439 334.296 378.559 335.136 378.559 336.048ZM377.695 336.048C377.695 335.376 377.659 334.656 377.227 334.224C376.939 333.936 376.567 333.792 376.147 333.792C375.727 333.792 375.367 333.936 375.079 334.224C374.647 334.656 374.599 335.376 374.599 336.048C374.599 336.708 374.635 337.428 375.079 337.872C375.367 338.16 375.727 338.304 376.147 338.304C376.567 338.304 376.939 338.16 377.227 337.872C377.659 337.428 377.695 336.708 377.695 336.048ZM388.858 339H387.994V335.364C387.994 334.32 387.43 333.792 386.542 333.792C385.678 333.792 385.066 334.332 385.066 335.268V339H384.202V335.364C384.202 334.32 383.638 333.792 382.75 333.792C381.862 333.792 381.274 334.332 381.274 335.364V339H380.41V333.096H381.274V333.744C381.694 333.264 382.282 333.024 382.942 333.024C383.758 333.024 384.394 333.36 384.754 334.008C385.21 333.36 385.87 333.024 386.698 333.024C387.334 333.024 387.862 333.228 388.222 333.576C388.642 333.984 388.858 334.536 388.858 335.22V339ZM395.481 336.276H391.497C391.497 337.572 392.097 338.316 393.237 338.316C393.921 338.316 394.317 338.112 394.785 337.644L395.373 338.16C394.773 338.76 394.209 339.072 393.213 339.072C391.641 339.072 390.633 338.136 390.633 336.048C390.633 334.128 391.557 333.024 393.057 333.024C394.593 333.024 395.481 334.116 395.481 335.892V336.276ZM394.629 335.628C394.593 335.148 394.581 334.956 394.437 334.644C394.185 334.104 393.693 333.756 393.057 333.756C392.421 333.756 391.929 334.104 391.677 334.644C391.533 334.956 391.521 335.148 391.497 335.628H394.629ZM401.58 337.272C401.58 338.412 400.62 339.072 399.18 339.072C398.172 339.072 397.392 338.844 396.756 338.22L397.332 337.644C397.788 338.124 398.436 338.328 399.168 338.328C400.152 338.328 400.74 337.98 400.74 337.284C400.74 336.756 400.452 336.48 399.756 336.42L398.784 336.336C397.632 336.24 397.02 335.736 397.02 334.752C397.02 333.672 397.92 333.024 399.192 333.024C400.044 333.024 400.776 333.228 401.316 333.66L400.752 334.224C400.332 333.9 399.792 333.756 399.18 333.756C398.316 333.756 397.86 334.116 397.86 334.728C397.86 335.256 398.184 335.52 398.916 335.592L399.84 335.676C400.872 335.772 401.58 336.156 401.58 337.272ZM407.475 337.272C407.475 338.412 406.515 339.072 405.075 339.072C404.067 339.072 403.287 338.844 402.651 338.22L403.227 337.644C403.683 338.124 404.331 338.328 405.063 338.328C406.047 338.328 406.635 337.98 406.635 337.284C406.635 336.756 406.347 336.48 405.651 336.42L404.679 336.336C403.527 336.24 402.915 335.736 402.915 334.752C402.915 333.672 403.815 333.024 405.087 333.024C405.939 333.024 406.671 333.228 407.211 333.66L406.647 334.224C406.227 333.9 405.687 333.756 405.075 333.756C404.211 333.756 403.755 334.116 403.755 334.728C403.755 335.256 404.079 335.52 404.811 335.592L405.735 335.676C406.767 335.772 407.475 336.156 407.475 337.272ZM413.38 339H412.516V338.436C412.048 338.904 411.604 339.072 410.812 339.072C409.996 339.072 409.552 338.928 409.144 338.532C408.844 338.244 408.7 337.8 408.7 337.332C408.7 336.288 409.432 335.628 410.752 335.628H412.516V335.064C412.516 334.212 412.096 333.768 411.004 333.768C410.26 333.768 409.876 333.96 409.516 334.452L408.928 333.912C409.444 333.228 410.044 333.024 411.016 333.024C412.612 333.024 413.38 333.72 413.38 334.992V339ZM412.516 336.912V336.276H410.872C409.984 336.276 409.54 336.624 409.54 337.32C409.54 338.004 409.96 338.328 410.908 338.328C411.4 338.328 411.832 338.28 412.216 337.932C412.42 337.74 412.516 337.404 412.516 336.912ZM422.852 339H422V338.292C421.508 338.916 420.992 339.072 420.32 339.072C419.708 339.072 419.192 338.868 418.88 338.556C418.292 337.956 418.16 336.996 418.16 336.048C418.16 335.1 418.292 334.128 418.88 333.54C419.192 333.228 419.708 333.024 420.32 333.024C420.98 333.024 421.496 333.168 421.988 333.78V330.456H422.852V339ZM421.988 336.048C421.988 334.896 421.796 333.792 420.512 333.792C419.216 333.792 419.024 334.896 419.024 336.048C419.024 337.2 419.216 338.304 420.512 338.304C421.796 338.304 421.988 337.2 421.988 336.048ZM429.536 336.276H425.552C425.552 337.572 426.152 338.316 427.292 338.316C427.976 338.316 428.372 338.112 428.84 337.644L429.428 338.16C428.828 338.76 428.264 339.072 427.268 339.072C425.696 339.072 424.688 338.136 424.688 336.048C424.688 334.128 425.612 333.024 427.112 333.024C428.648 333.024 429.536 334.116 429.536 335.892V336.276ZM428.684 335.628C428.648 335.148 428.636 334.956 428.492 334.644C428.24 334.104 427.748 333.756 427.112 333.756C426.476 333.756 425.984 334.104 425.732 334.644C425.588 334.956 425.576 335.148 425.552 335.628H428.684ZM438.719 339.18C438.719 340.644 437.807 341.712 436.259 341.712C435.371 341.712 434.879 341.484 434.255 340.92L434.819 340.368C435.251 340.752 435.551 340.956 436.235 340.956C437.375 340.956 437.855 340.152 437.855 339.144V338.22C437.375 338.832 436.835 338.988 436.199 338.988C435.599 338.988 435.083 338.772 434.771 338.46C434.183 337.872 434.051 336.96 434.051 336C434.051 335.04 434.183 334.128 434.771 333.54C435.083 333.228 435.611 333.024 436.211 333.024C436.859 333.024 437.387 333.168 437.867 333.792V333.096H438.719V339.18ZM437.855 336C437.855 334.896 437.675 333.792 436.391 333.792C435.107 333.792 434.915 334.896 434.915 336C434.915 337.104 435.107 338.208 436.391 338.208C437.675 338.208 437.855 337.104 437.855 336ZM445.091 339H444.227V338.436C443.759 338.904 443.315 339.072 442.523 339.072C441.707 339.072 441.263 338.928 440.855 338.532C440.555 338.244 440.411 337.8 440.411 337.332C440.411 336.288 441.143 335.628 442.463 335.628H444.227V335.064C444.227 334.212 443.807 333.768 442.715 333.768C441.971 333.768 441.587 333.96 441.227 334.452L440.639 333.912C441.155 333.228 441.755 333.024 442.727 333.024C444.323 333.024 445.091 333.72 445.091 334.992V339ZM444.227 336.912V336.276H442.583C441.695 336.276 441.251 336.624 441.251 337.32C441.251 338.004 441.671 338.328 442.619 338.328C443.111 338.328 443.543 338.28 443.927 337.932C444.131 337.74 444.227 337.404 444.227 336.912ZM451.839 339H450.975V335.364C450.975 334.32 450.411 333.792 449.523 333.792C448.635 333.792 448.059 334.332 448.059 335.364V339H447.195V333.096H448.059V333.744C448.479 333.264 449.055 333.024 449.715 333.024C450.351 333.024 450.867 333.216 451.227 333.576C451.647 333.984 451.839 334.536 451.839 335.22V339ZM458.577 339H457.713V335.352C457.713 334.308 457.173 333.792 456.273 333.792C455.373 333.792 454.797 334.308 454.797 335.352V339H453.933V330.456H454.797V333.744C455.229 333.264 455.781 333.024 456.453 333.024C457.797 333.024 458.577 333.876 458.577 335.208V339ZM465.184 336.048C465.184 336.96 465.064 337.788 464.464 338.4C464.056 338.82 463.492 339.072 462.772 339.072C462.052 339.072 461.488 338.82 461.08 338.4C460.48 337.788 460.36 336.96 460.36 336.048C460.36 335.136 460.48 334.296 461.08 333.696C461.488 333.276 462.052 333.024 462.772 333.024C463.492 333.024 464.056 333.276 464.464 333.696C465.064 334.296 465.184 335.136 465.184 336.048ZM464.32 336.048C464.32 335.376 464.284 334.656 463.852 334.224C463.564 333.936 463.192 333.792 462.772 333.792C462.352 333.792 461.992 333.936 461.704 334.224C461.272 334.656 461.224 335.376 461.224 336.048C461.224 336.708 461.26 337.428 461.704 337.872C461.992 338.16 462.352 338.304 462.772 338.304C463.192 338.304 463.564 338.16 463.852 337.872C464.284 337.428 464.32 336.708 464.32 336.048ZM471.295 337.272C471.295 338.412 470.335 339.072 468.895 339.072C467.887 339.072 467.107 338.844 466.471 338.22L467.047 337.644C467.503 338.124 468.151 338.328 468.883 338.328C469.867 338.328 470.455 337.98 470.455 337.284C470.455 336.756 470.167 336.48 469.471 336.42L468.499 336.336C467.347 336.24 466.735 335.736 466.735 334.752C466.735 333.672 467.635 333.024 468.907 333.024C469.759 333.024 470.491 333.228 471.031 333.66L470.467 334.224C470.047 333.9 469.507 333.756 468.895 333.756C468.031 333.756 467.575 334.116 467.575 334.728C467.575 335.256 467.899 335.52 468.631 335.592L469.555 335.676C470.587 335.772 471.295 336.156 471.295 337.272ZM474.092 339H472.964V337.872H474.092V339ZM126.228 354H125.16L123.216 350.208H121.164V354H120.252V345.456H123.528C125.016 345.456 126.06 346.356 126.06 347.832C126.06 349.08 125.304 349.896 124.2 350.124L126.228 354ZM125.148 347.844C125.148 346.8 124.44 346.272 123.444 346.272H121.164V349.404H123.444C124.44 349.404 125.148 348.888 125.148 347.844ZM132.131 351.276H128.147C128.147 352.572 128.747 353.316 129.887 353.316C130.571 353.316 130.967 353.112 131.435 352.644L132.023 353.16C131.423 353.76 130.859 354.072 129.863 354.072C128.291 354.072 127.283 353.136 127.283 351.048C127.283 349.128 128.207 348.024 129.707 348.024C131.243 348.024 132.131 349.116 132.131 350.892V351.276ZM131.279 350.628C131.243 350.148 131.231 349.956 131.087 349.644C130.835 349.104 130.343 348.756 129.707 348.756C129.071 348.756 128.579 349.104 128.327 349.644C128.183 349.956 128.171 350.148 128.147 350.628H131.279ZM138.615 354H137.751V350.364C137.751 349.32 137.187 348.792 136.299 348.792C135.411 348.792 134.835 349.332 134.835 350.364V354H133.971V348.096H134.835V348.744C135.255 348.264 135.831 348.024 136.491 348.024C137.127 348.024 137.643 348.216 138.003 348.576C138.423 348.984 138.615 349.536 138.615 350.22V354ZM142.977 354H142.365C141.357 354 140.853 353.292 140.853 352.416V348.756H140.109V348.096H140.853V346.284H141.717V348.096H142.977V348.756H141.717V352.392C141.717 352.932 141.969 353.256 142.521 353.256H142.977V354ZM148.847 354H147.983V353.436C147.515 353.904 147.071 354.072 146.279 354.072C145.463 354.072 145.019 353.928 144.611 353.532C144.311 353.244 144.167 352.8 144.167 352.332C144.167 351.288 144.899 350.628 146.219 350.628H147.983V350.064C147.983 349.212 147.563 348.768 146.471 348.768C145.727 348.768 145.343 348.96 144.983 349.452L144.395 348.912C144.911 348.228 145.511 348.024 146.483 348.024C148.079 348.024 148.847 348.72 148.847 349.992V354ZM147.983 351.912V351.276H146.339C145.451 351.276 145.007 351.624 145.007 352.32C145.007 353.004 145.427 353.328 146.375 353.328C146.867 353.328 147.299 353.28 147.683 352.932C147.887 352.74 147.983 352.404 147.983 351.912ZM155.643 351.048C155.643 351.996 155.511 352.956 154.923 353.556C154.611 353.868 154.095 354.072 153.483 354.072C152.823 354.072 152.307 353.916 151.815 353.292V354H150.951V345.456H151.815V348.78C152.307 348.168 152.835 348.024 153.483 348.024C154.095 348.024 154.611 348.228 154.923 348.54C155.511 349.128 155.643 350.1 155.643 351.048ZM154.779 351.048C154.779 349.896 154.587 348.792 153.303 348.792C152.007 348.792 151.815 349.896 151.815 351.048C151.815 352.2 152.007 353.304 153.303 353.304C154.587 353.304 154.779 352.2 154.779 351.048ZM158.354 354H157.49V348.096H158.354V354ZM158.414 346.416H157.442V345.444H158.414V346.416ZM162.613 354H161.989C160.957 354 160.489 353.328 160.489 352.428V345.456H161.353V352.392C161.353 352.968 161.545 353.256 162.145 353.256H162.613V354ZM164.905 354H164.041V348.096H164.905V354ZM164.965 346.416H163.993V345.444H164.965V346.416ZM171.444 354H170.592V353.292C170.1 353.916 169.584 354.072 168.912 354.072C168.3 354.072 167.784 353.868 167.472 353.556C166.884 352.956 166.752 351.996 166.752 351.048C166.752 350.1 166.884 349.128 167.472 348.54C167.784 348.228 168.3 348.024 168.912 348.024C169.572 348.024 170.088 348.168 170.58 348.78V345.456H171.444V354ZM170.58 351.048C170.58 349.896 170.388 348.792 169.104 348.792C167.808 348.792 167.616 349.896 167.616 351.048C167.616 352.2 167.808 353.304 169.104 353.304C170.388 353.304 170.58 352.2 170.58 351.048ZM177.815 354H176.951V353.436C176.483 353.904 176.039 354.072 175.247 354.072C174.431 354.072 173.987 353.928 173.579 353.532C173.279 353.244 173.135 352.8 173.135 352.332C173.135 351.288 173.867 350.628 175.187 350.628H176.951V350.064C176.951 349.212 176.531 348.768 175.439 348.768C174.695 348.768 174.311 348.96 173.951 349.452L173.363 348.912C173.879 348.228 174.479 348.024 175.451 348.024C177.047 348.024 177.815 348.72 177.815 349.992V354ZM176.951 351.912V351.276H175.307C174.419 351.276 173.975 351.624 173.975 352.32C173.975 353.004 174.395 353.328 175.343 353.328C175.835 353.328 176.267 353.28 176.651 352.932C176.855 352.74 176.951 352.404 176.951 351.912ZM184.3 354H183.448V353.292C182.956 353.916 182.44 354.072 181.768 354.072C181.156 354.072 180.64 353.868 180.328 353.556C179.74 352.956 179.608 351.996 179.608 351.048C179.608 350.1 179.74 349.128 180.328 348.54C180.64 348.228 181.156 348.024 181.768 348.024C182.428 348.024 182.944 348.168 183.436 348.78V345.456H184.3V354ZM183.436 351.048C183.436 349.896 183.244 348.792 181.96 348.792C180.664 348.792 180.472 349.896 180.472 351.048C180.472 352.2 180.664 353.304 181.96 353.304C183.244 353.304 183.436 352.2 183.436 351.048ZM190.983 351.276H186.999C186.999 352.572 187.599 353.316 188.739 353.316C189.423 353.316 189.819 353.112 190.287 352.644L190.875 353.16C190.275 353.76 189.711 354.072 188.715 354.072C187.143 354.072 186.135 353.136 186.135 351.048C186.135 349.128 187.059 348.024 188.559 348.024C190.095 348.024 190.983 349.116 190.983 350.892V351.276ZM190.131 350.628C190.095 350.148 190.083 349.956 189.939 349.644C189.687 349.104 189.195 348.756 188.559 348.756C187.923 348.756 187.431 349.104 187.179 349.644C187.035 349.956 187.023 350.148 186.999 350.628H190.131ZM200.502 351.048C200.502 351.996 200.37 352.956 199.782 353.556C199.47 353.868 198.954 354.072 198.342 354.072C197.694 354.072 197.166 353.916 196.674 353.304V356.64H195.81V348.096H196.674V348.792C197.166 348.18 197.682 348.024 198.342 348.024C198.954 348.024 199.47 348.228 199.782 348.54C200.37 349.128 200.502 350.1 200.502 351.048ZM199.638 351.048C199.638 349.896 199.446 348.792 198.162 348.792C196.866 348.792 196.674 349.896 196.674 351.048C196.674 352.2 196.866 353.304 198.162 353.304C199.446 353.304 199.638 352.2 199.638 351.048ZM206.561 354H205.697V353.436C205.229 353.904 204.785 354.072 203.993 354.072C203.177 354.072 202.733 353.928 202.325 353.532C202.025 353.244 201.881 352.8 201.881 352.332C201.881 351.288 202.613 350.628 203.933 350.628H205.697V350.064C205.697 349.212 205.277 348.768 204.185 348.768C203.441 348.768 203.057 348.96 202.697 349.452L202.109 348.912C202.625 348.228 203.225 348.024 204.197 348.024C205.793 348.024 206.561 348.72 206.561 349.992V354ZM205.697 351.912V351.276H204.053C203.165 351.276 202.721 351.624 202.721 352.32C202.721 353.004 203.141 353.328 204.089 353.328C204.581 353.328 205.013 353.28 205.397 352.932C205.601 352.74 205.697 352.404 205.697 351.912ZM212.926 352.272C212.926 353.412 211.966 354.072 210.526 354.072C209.518 354.072 208.738 353.844 208.102 353.22L208.678 352.644C209.134 353.124 209.782 353.328 210.514 353.328C211.498 353.328 212.086 352.98 212.086 352.284C212.086 351.756 211.798 351.48 211.102 351.42L210.13 351.336C208.978 351.24 208.366 350.736 208.366 349.752C208.366 348.672 209.266 348.024 210.538 348.024C211.39 348.024 212.122 348.228 212.662 348.66L212.098 349.224C211.678 348.9 211.138 348.756 210.526 348.756C209.662 348.756 209.206 349.116 209.206 349.728C209.206 350.256 209.53 350.52 210.262 350.592L211.186 350.676C212.218 350.772 212.926 351.156 212.926 352.272ZM218.82 352.272C218.82 353.412 217.86 354.072 216.42 354.072C215.412 354.072 214.632 353.844 213.996 353.22L214.572 352.644C215.028 353.124 215.676 353.328 216.408 353.328C217.392 353.328 217.98 352.98 217.98 352.284C217.98 351.756 217.692 351.48 216.996 351.42L216.024 351.336C214.872 351.24 214.26 350.736 214.26 349.752C214.26 348.672 215.16 348.024 216.432 348.024C217.284 348.024 218.016 348.228 218.556 348.66L217.992 349.224C217.572 348.9 217.032 348.756 216.42 348.756C215.556 348.756 215.1 349.116 215.1 349.728C215.1 350.256 215.424 350.52 216.156 350.592L217.08 350.676C218.112 350.772 218.82 351.156 218.82 352.272ZM224.725 354H223.861V353.436C223.393 353.904 222.949 354.072 222.157 354.072C221.341 354.072 220.897 353.928 220.489 353.532C220.189 353.244 220.045 352.8 220.045 352.332C220.045 351.288 220.777 350.628 222.097 350.628H223.861V350.064C223.861 349.212 223.441 348.768 222.349 348.768C221.605 348.768 221.221 348.96 220.861 349.452L220.273 348.912C220.789 348.228 221.389 348.024 222.361 348.024C223.957 348.024 224.725 348.72 224.725 349.992V354ZM223.861 351.912V351.276H222.217C221.329 351.276 220.885 351.624 220.885 352.32C220.885 353.004 221.305 353.328 222.253 353.328C222.745 353.328 223.177 353.28 223.561 352.932C223.765 352.74 223.861 352.404 223.861 351.912ZM231.21 354H230.358V353.292C229.866 353.916 229.35 354.072 228.678 354.072C228.066 354.072 227.55 353.868 227.238 353.556C226.65 352.956 226.518 351.996 226.518 351.048C226.518 350.1 226.65 349.128 227.238 348.54C227.55 348.228 228.066 348.024 228.678 348.024C229.338 348.024 229.854 348.168 230.346 348.78V345.456H231.21V354ZM230.346 351.048C230.346 349.896 230.154 348.792 228.87 348.792C227.574 348.792 227.382 349.896 227.382 351.048C227.382 352.2 227.574 353.304 228.87 353.304C230.154 353.304 230.346 352.2 230.346 351.048ZM237.581 354H236.717V353.436C236.249 353.904 235.805 354.072 235.013 354.072C234.197 354.072 233.753 353.928 233.345 353.532C233.045 353.244 232.901 352.8 232.901 352.332C232.901 351.288 233.633 350.628 234.953 350.628H236.717V350.064C236.717 349.212 236.297 348.768 235.205 348.768C234.461 348.768 234.077 348.96 233.717 349.452L233.129 348.912C233.645 348.228 234.245 348.024 235.217 348.024C236.813 348.024 237.581 348.72 237.581 349.992V354ZM236.717 351.912V351.276H235.073C234.185 351.276 233.741 351.624 233.741 352.32C233.741 353.004 234.161 353.328 235.109 353.328C235.601 353.328 236.033 353.28 236.417 352.932C236.621 352.74 236.717 352.404 236.717 351.912ZM247.318 354H246.454V350.364C246.454 349.32 245.89 348.792 245.002 348.792C244.114 348.792 243.538 349.332 243.538 350.364V354H242.674V348.096H243.538V348.744C243.958 348.264 244.534 348.024 245.194 348.024C245.83 348.024 246.346 348.216 246.706 348.576C247.126 348.984 247.318 349.536 247.318 350.22V354ZM253.624 354H252.76V353.436C252.292 353.904 251.848 354.072 251.056 354.072C250.24 354.072 249.796 353.928 249.388 353.532C249.088 353.244 248.944 352.8 248.944 352.332C248.944 351.288 249.676 350.628 250.996 350.628H252.76V350.064C252.76 349.212 252.34 348.768 251.248 348.768C250.504 348.768 250.12 348.96 249.76 349.452L249.172 348.912C249.688 348.228 250.288 348.024 251.26 348.024C252.856 348.024 253.624 348.72 253.624 349.992V354ZM252.76 351.912V351.276H251.116C250.228 351.276 249.784 351.624 249.784 352.32C249.784 353.004 250.204 353.328 251.152 353.328C251.644 353.328 252.076 353.28 252.46 352.932C252.664 352.74 252.76 352.404 252.76 351.912ZM253.24 346.104C252.7 346.656 252.376 346.716 252.1 346.716C251.764 346.716 251.536 346.596 251.248 346.428C251.02 346.296 250.816 346.188 250.576 346.188C250.372 346.188 250.228 346.212 249.868 346.572L249.424 346.14C249.976 345.588 250.276 345.528 250.564 345.528C250.912 345.528 251.116 345.624 251.416 345.816C251.668 345.96 251.848 346.056 252.088 346.056C252.28 346.056 252.436 346.032 252.796 345.672L253.24 346.104ZM260.24 351.048C260.24 351.96 260.12 352.788 259.52 353.4C259.112 353.82 258.548 354.072 257.828 354.072C257.108 354.072 256.544 353.82 256.136 353.4C255.536 352.788 255.416 351.96 255.416 351.048C255.416 350.136 255.536 349.296 256.136 348.696C256.544 348.276 257.108 348.024 257.828 348.024C258.548 348.024 259.112 348.276 259.52 348.696C260.12 349.296 260.24 350.136 260.24 351.048ZM259.376 351.048C259.376 350.376 259.34 349.656 258.908 349.224C258.62 348.936 258.248 348.792 257.828 348.792C257.408 348.792 257.048 348.936 256.76 349.224C256.328 349.656 256.28 350.376 256.28 351.048C256.28 351.708 256.316 352.428 256.76 352.872C257.048 353.16 257.408 353.304 257.828 353.304C258.248 353.304 258.62 353.16 258.908 352.872C259.34 352.428 259.376 351.708 259.376 351.048ZM269.604 351.276H265.62C265.62 352.572 266.22 353.316 267.36 353.316C268.044 353.316 268.44 353.112 268.908 352.644L269.496 353.16C268.896 353.76 268.332 354.072 267.336 354.072C265.764 354.072 264.756 353.136 264.756 351.048C264.756 349.128 265.68 348.024 267.18 348.024C268.716 348.024 269.604 349.116 269.604 350.892V351.276ZM268.752 350.628C268.716 350.148 268.704 349.956 268.56 349.644C268.308 349.104 267.816 348.756 267.18 348.756C266.544 348.756 266.052 349.104 265.8 349.644C265.656 349.956 265.644 350.148 265.62 350.628H268.752ZM268.704 345.036L267.444 346.872H266.616L267.708 345.036H268.704ZM278.787 354.18C278.787 355.644 277.875 356.712 276.327 356.712C275.439 356.712 274.947 356.484 274.323 355.92L274.887 355.368C275.319 355.752 275.619 355.956 276.303 355.956C277.443 355.956 277.923 355.152 277.923 354.144V353.22C277.443 353.832 276.903 353.988 276.267 353.988C275.667 353.988 275.151 353.772 274.839 353.46C274.251 352.872 274.119 351.96 274.119 351C274.119 350.04 274.251 349.128 274.839 348.54C275.151 348.228 275.679 348.024 276.279 348.024C276.927 348.024 277.455 348.168 277.935 348.792V348.096H278.787V354.18ZM277.923 351C277.923 349.896 277.743 348.792 276.459 348.792C275.175 348.792 274.983 349.896 274.983 351C274.983 352.104 275.175 353.208 276.459 353.208C277.743 353.208 277.923 352.104 277.923 351ZM285.159 354H284.295V353.436C283.827 353.904 283.383 354.072 282.591 354.072C281.775 354.072 281.331 353.928 280.923 353.532C280.623 353.244 280.479 352.8 280.479 352.332C280.479 351.288 281.211 350.628 282.531 350.628H284.295V350.064C284.295 349.212 283.875 348.768 282.783 348.768C282.039 348.768 281.655 348.96 281.295 349.452L280.707 348.912C281.223 348.228 281.823 348.024 282.795 348.024C284.391 348.024 285.159 348.72 285.159 349.992V354ZM284.295 351.912V351.276H282.651C281.763 351.276 281.319 351.624 281.319 352.32C281.319 353.004 281.739 353.328 282.687 353.328C283.179 353.328 283.611 353.28 283.995 352.932C284.199 352.74 284.295 352.404 284.295 351.912ZM291.199 348.576L290.563 349.224C290.239 348.9 289.999 348.792 289.543 348.792C288.679 348.792 288.127 349.476 288.127 350.376V354H287.263V348.096H288.127V348.816C288.451 348.324 289.099 348.024 289.783 348.024C290.347 348.024 290.779 348.156 291.199 348.576ZM296.409 354H295.545V353.436C295.077 353.904 294.633 354.072 293.841 354.072C293.025 354.072 292.581 353.928 292.173 353.532C291.873 353.244 291.729 352.8 291.729 352.332C291.729 351.288 292.461 350.628 293.781 350.628H295.545V350.064C295.545 349.212 295.125 348.768 294.033 348.768C293.289 348.768 292.905 348.96 292.545 349.452L291.957 348.912C292.473 348.228 293.073 348.024 294.045 348.024C295.641 348.024 296.409 348.72 296.409 349.992V354ZM295.545 351.912V351.276H293.901C293.013 351.276 292.569 351.624 292.569 352.32C292.569 353.004 292.989 353.328 293.937 353.328C294.429 353.328 294.861 353.28 295.245 352.932C295.449 352.74 295.545 352.404 295.545 351.912ZM303.157 354H302.293V350.364C302.293 349.32 301.729 348.792 300.841 348.792C299.953 348.792 299.377 349.332 299.377 350.364V354H298.513V348.096H299.377V348.744C299.797 348.264 300.373 348.024 301.033 348.024C301.669 348.024 302.185 348.216 302.545 348.576C302.965 348.984 303.157 349.536 303.157 350.22V354ZM307.52 354H306.908C305.9 354 305.396 353.292 305.396 352.416V348.756H304.652V348.096H305.396V346.284H306.26V348.096H307.52V348.756H306.26V352.392C306.26 352.932 306.512 353.256 307.064 353.256H307.52V354ZM310.1 354H309.236V348.096H310.1V354ZM310.16 346.416H309.188V345.444H310.16V346.416ZM316.472 354H315.608V353.436C315.14 353.904 314.696 354.072 313.904 354.072C313.088 354.072 312.644 353.928 312.236 353.532C311.936 353.244 311.792 352.8 311.792 352.332C311.792 351.288 312.524 350.628 313.844 350.628H315.608V350.064C315.608 349.212 315.188 348.768 314.096 348.768C313.352 348.768 312.968 348.96 312.608 349.452L312.02 348.912C312.536 348.228 313.136 348.024 314.108 348.024C315.704 348.024 316.472 348.72 316.472 349.992V354ZM315.608 351.912V351.276H313.964C313.076 351.276 312.632 351.624 312.632 352.32C312.632 353.004 313.052 353.328 314 353.328C314.492 353.328 314.924 353.28 315.308 352.932C315.512 352.74 315.608 352.404 315.608 351.912ZM325.944 354H325.092V353.292C324.6 353.916 324.084 354.072 323.412 354.072C322.8 354.072 322.284 353.868 321.972 353.556C321.384 352.956 321.252 351.996 321.252 351.048C321.252 350.1 321.384 349.128 321.972 348.54C322.284 348.228 322.8 348.024 323.412 348.024C324.072 348.024 324.588 348.168 325.08 348.78V345.456H325.944V354ZM325.08 351.048C325.08 349.896 324.888 348.792 323.604 348.792C322.308 348.792 322.116 349.896 322.116 351.048C322.116 352.2 322.308 353.304 323.604 353.304C324.888 353.304 325.08 352.2 325.08 351.048ZM332.627 351.276H328.643C328.643 352.572 329.243 353.316 330.383 353.316C331.067 353.316 331.463 353.112 331.931 352.644L332.519 353.16C331.919 353.76 331.355 354.072 330.359 354.072C328.787 354.072 327.779 353.136 327.779 351.048C327.779 349.128 328.703 348.024 330.203 348.024C331.739 348.024 332.627 349.116 332.627 350.892V351.276ZM331.775 350.628C331.739 350.148 331.727 349.956 331.583 349.644C331.331 349.104 330.839 348.756 330.203 348.756C329.567 348.756 329.075 349.104 328.823 349.644C328.679 349.956 328.667 350.148 328.643 350.628H331.775ZM341.391 348.576L340.755 349.224C340.431 348.9 340.191 348.792 339.735 348.792C338.871 348.792 338.319 349.476 338.319 350.376V354H337.455V348.096H338.319V348.816C338.643 348.324 339.291 348.024 339.975 348.024C340.539 348.024 340.971 348.156 341.391 348.576ZM346.666 351.276H342.682C342.682 352.572 343.282 353.316 344.422 353.316C345.106 353.316 345.502 353.112 345.97 352.644L346.558 353.16C345.958 353.76 345.394 354.072 344.398 354.072C342.826 354.072 341.818 353.136 341.818 351.048C341.818 349.128 342.742 348.024 344.242 348.024C345.778 348.024 346.666 349.116 346.666 350.892V351.276ZM345.814 350.628C345.778 350.148 345.766 349.956 345.622 349.644C345.37 349.104 344.878 348.756 344.242 348.756C343.606 348.756 343.114 349.104 342.862 349.644C342.718 349.956 342.706 350.148 342.682 350.628H345.814ZM353.15 354H352.286V350.364C352.286 349.32 351.722 348.792 350.834 348.792C349.946 348.792 349.37 349.332 349.37 350.364V354H348.506V348.096H349.37V348.744C349.79 348.264 350.366 348.024 351.026 348.024C351.662 348.024 352.178 348.216 352.538 348.576C352.958 348.984 353.15 349.536 353.15 350.22V354ZM357.512 354H356.9C355.892 354 355.388 353.292 355.388 352.416V348.756H354.644V348.096H355.388V346.284H356.252V348.096H357.512V348.756H356.252V352.392C356.252 352.932 356.504 353.256 357.056 353.256H357.512V354ZM363.382 354H362.518V353.436C362.05 353.904 361.606 354.072 360.814 354.072C359.998 354.072 359.554 353.928 359.146 353.532C358.846 353.244 358.702 352.8 358.702 352.332C358.702 351.288 359.434 350.628 360.754 350.628H362.518V350.064C362.518 349.212 362.098 348.768 361.006 348.768C360.262 348.768 359.878 348.96 359.518 349.452L358.93 348.912C359.446 348.228 360.046 348.024 361.018 348.024C362.614 348.024 363.382 348.72 363.382 349.992V354ZM362.518 351.912V351.276H360.874C359.986 351.276 359.542 351.624 359.542 352.32C359.542 353.004 359.962 353.328 360.91 353.328C361.402 353.328 361.834 353.28 362.218 352.932C362.422 352.74 362.518 352.404 362.518 351.912ZM370.178 351.048C370.178 351.996 370.046 352.956 369.458 353.556C369.146 353.868 368.63 354.072 368.018 354.072C367.358 354.072 366.842 353.916 366.35 353.292V354H365.486V345.456H366.35V348.78C366.842 348.168 367.37 348.024 368.018 348.024C368.63 348.024 369.146 348.228 369.458 348.54C370.046 349.128 370.178 350.1 370.178 351.048ZM369.314 351.048C369.314 349.896 369.122 348.792 367.838 348.792C366.542 348.792 366.35 349.896 366.35 351.048C366.35 352.2 366.542 353.304 367.838 353.304C369.122 353.304 369.314 352.2 369.314 351.048ZM372.889 354H372.025V348.096H372.889V354ZM372.949 346.416H371.977V345.444H372.949V346.416ZM377.149 354H376.525C375.493 354 375.025 353.328 375.025 352.428V345.456H375.889V352.392C375.889 352.968 376.081 353.256 376.681 353.256H377.149V354ZM379.44 354H378.576V348.096H379.44V354ZM379.5 346.416H378.528V345.444H379.5V346.416ZM385.979 354H385.127V353.292C384.635 353.916 384.119 354.072 383.447 354.072C382.835 354.072 382.319 353.868 382.007 353.556C381.419 352.956 381.287 351.996 381.287 351.048C381.287 350.1 381.419 349.128 382.007 348.54C382.319 348.228 382.835 348.024 383.447 348.024C384.107 348.024 384.623 348.168 385.115 348.78V345.456H385.979V354ZM385.115 351.048C385.115 349.896 384.923 348.792 383.639 348.792C382.343 348.792 382.151 349.896 382.151 351.048C382.151 352.2 382.343 353.304 383.639 353.304C384.923 353.304 385.115 352.2 385.115 351.048ZM392.35 354H391.486V353.436C391.018 353.904 390.574 354.072 389.782 354.072C388.966 354.072 388.522 353.928 388.114 353.532C387.814 353.244 387.67 352.8 387.67 352.332C387.67 351.288 388.402 350.628 389.722 350.628H391.486V350.064C391.486 349.212 391.066 348.768 389.974 348.768C389.23 348.768 388.846 348.96 388.486 349.452L387.898 348.912C388.414 348.228 389.014 348.024 389.986 348.024C391.582 348.024 392.35 348.72 392.35 349.992V354ZM391.486 351.912V351.276H389.842C388.954 351.276 388.51 351.624 388.51 352.32C388.51 353.004 388.93 353.328 389.878 353.328C390.37 353.328 390.802 353.28 391.186 352.932C391.39 352.74 391.486 352.404 391.486 351.912ZM398.835 354H397.983V353.292C397.491 353.916 396.975 354.072 396.303 354.072C395.691 354.072 395.175 353.868 394.863 353.556C394.275 352.956 394.143 351.996 394.143 351.048C394.143 350.1 394.275 349.128 394.863 348.54C395.175 348.228 395.691 348.024 396.303 348.024C396.963 348.024 397.479 348.168 397.971 348.78V345.456H398.835V354ZM397.971 351.048C397.971 349.896 397.779 348.792 396.495 348.792C395.199 348.792 395.007 349.896 395.007 351.048C395.007 352.2 395.199 353.304 396.495 353.304C397.779 353.304 397.971 352.2 397.971 351.048ZM405.518 351.276H401.534C401.534 352.572 402.134 353.316 403.274 353.316C403.958 353.316 404.354 353.112 404.822 352.644L405.41 353.16C404.81 353.76 404.246 354.072 403.25 354.072C401.678 354.072 400.67 353.136 400.67 351.048C400.67 349.128 401.594 348.024 403.094 348.024C404.63 348.024 405.518 349.116 405.518 350.892V351.276ZM404.666 350.628C404.63 350.148 404.618 349.956 404.474 349.644C404.222 349.104 403.73 348.756 403.094 348.756C402.458 348.756 401.966 349.104 401.714 349.644C401.57 349.956 401.558 350.148 401.534 350.628H404.666ZM412.662 348.756H411.402V354H410.538V348.756H409.782V348.096H410.538V347.016C410.538 346.14 411.03 345.432 412.038 345.432H412.662V346.176H412.194C411.642 346.176 411.402 346.5 411.402 347.04V348.096H412.662V348.756ZM418.703 354H417.851V353.34C417.431 353.82 416.843 354.072 416.183 354.072C415.547 354.072 415.019 353.88 414.659 353.52C414.239 353.112 414.059 352.548 414.059 351.864V348.096H414.923V351.732C414.923 352.776 415.475 353.304 416.363 353.304C417.251 353.304 417.839 352.764 417.839 351.732V348.096H418.703V354ZM423.125 354H422.513C421.505 354 421.001 353.292 421.001 352.416V348.756H420.257V348.096H421.001V346.284H421.865V348.096H423.125V348.756H421.865V352.392C421.865 352.932 422.117 353.256 422.669 353.256H423.125V354ZM429.426 354H428.574V353.34C428.154 353.82 427.566 354.072 426.906 354.072C426.27 354.072 425.742 353.88 425.382 353.52C424.962 353.112 424.782 352.548 424.782 351.864V348.096H425.646V351.732C425.646 352.776 426.198 353.304 427.086 353.304C427.974 353.304 428.562 352.764 428.562 351.732V348.096H429.426V354ZM435.516 348.576L434.88 349.224C434.556 348.9 434.316 348.792 433.86 348.792C432.996 348.792 432.444 349.476 432.444 350.376V354H431.58V348.096H432.444V348.816C432.768 348.324 433.416 348.024 434.1 348.024C434.664 348.024 435.096 348.156 435.516 348.576ZM440.725 354H439.861V353.436C439.393 353.904 438.949 354.072 438.157 354.072C437.341 354.072 436.897 353.928 436.489 353.532C436.189 353.244 436.045 352.8 436.045 352.332C436.045 351.288 436.777 350.628 438.097 350.628H439.861V350.064C439.861 349.212 439.441 348.768 438.349 348.768C437.605 348.768 437.221 348.96 436.861 349.452L436.273 348.912C436.789 348.228 437.389 348.024 438.361 348.024C439.957 348.024 440.725 348.72 440.725 349.992V354ZM439.861 351.912V351.276H438.217C437.329 351.276 436.885 351.624 436.885 352.32C436.885 353.004 437.305 353.328 438.253 353.328C438.745 353.328 439.177 353.28 439.561 352.932C439.765 352.74 439.861 352.404 439.861 351.912ZM443.934 354H442.806V352.872H443.934V354Z" fill="#5B6067"/>
<path d="M7.64716 265.358H1.58516V263.72L5.30916 259.394C5.67316 258.96 5.82716 258.652 5.82716 258.19C5.82716 257.448 5.39316 256.944 4.62316 256.944C4.02116 256.944 3.40516 257.252 3.40516 258.218H1.58516C1.58516 256.398 2.91516 255.306 4.62316 255.306C6.38716 255.306 7.64716 256.412 7.64716 258.204C7.64716 259.17 7.26916 259.688 6.58316 260.486L3.79716 263.72H7.64716V265.358ZM15.1927 262.474C15.1927 264.378 13.7927 265.442 12.1687 265.442C10.5447 265.442 9.13072 264.378 9.13072 262.474V258.274C9.13072 256.37 10.5447 255.306 12.1687 255.306C13.7927 255.306 15.1927 256.37 15.1927 258.274V262.474ZM13.3727 262.46V258.302C13.3727 257.462 12.8967 256.944 12.1687 256.944C11.4407 256.944 10.9507 257.462 10.9507 258.302V262.46C10.9507 263.3 11.4407 263.804 12.1687 263.804C12.8967 263.804 13.3727 263.3 13.3727 262.46ZM22.8503 265.358H16.7883V263.72L20.5123 259.394C20.8763 258.96 21.0303 258.652 21.0303 258.19C21.0303 257.448 20.5963 256.944 19.8263 256.944C19.2243 256.944 18.6083 257.252 18.6083 258.218H16.7883C16.7883 256.398 18.1183 255.306 19.8263 255.306C21.5903 255.306 22.8503 256.412 22.8503 258.204C22.8503 259.17 22.4723 259.688 21.7863 260.486L19.0003 263.72H22.8503V265.358ZM30.3958 262.474C30.3958 264.378 28.9958 265.442 27.3718 265.442C25.7478 265.442 24.3338 264.378 24.3338 262.474V258.274C24.3338 256.37 25.7478 255.306 27.3718 255.306C28.9958 255.306 30.3958 256.37 30.3958 258.274V262.474ZM28.5758 262.46V258.302C28.5758 257.462 28.0998 256.944 27.3718 256.944C26.6438 256.944 26.1538 257.462 26.1538 258.302V262.46C26.1538 263.3 26.6438 263.804 27.3718 263.804C28.0998 263.804 28.5758 263.3 28.5758 262.46Z" fill="#1F073B"/>
<path d="M436.81 265.358H430.748V263.72L434.472 259.394C434.836 258.96 434.99 258.652 434.99 258.19C434.99 257.448 434.556 256.944 433.786 256.944C433.184 256.944 432.568 257.252 432.568 258.218H430.748C430.748 256.398 432.078 255.306 433.786 255.306C435.55 255.306 436.81 256.412 436.81 258.204C436.81 259.17 436.432 259.688 435.746 260.486L432.96 263.72H436.81V265.358ZM444.355 262.474C444.355 264.378 442.955 265.442 441.331 265.442C439.707 265.442 438.293 264.378 438.293 262.474V258.274C438.293 256.37 439.707 255.306 441.331 255.306C442.955 255.306 444.355 256.37 444.355 258.274V262.474ZM442.535 262.46V258.302C442.535 257.462 442.059 256.944 441.331 256.944C440.603 256.944 440.113 257.462 440.113 258.302V262.46C440.113 263.3 440.603 263.804 441.331 263.804C442.059 263.804 442.535 263.3 442.535 262.46ZM452.013 265.358H445.951V263.72L449.675 259.394C450.039 258.96 450.193 258.652 450.193 258.19C450.193 257.448 449.759 256.944 448.989 256.944C448.387 256.944 447.771 257.252 447.771 258.218H445.951C445.951 256.398 447.281 255.306 448.989 255.306C450.753 255.306 452.013 256.412 452.013 258.204C452.013 259.17 451.635 259.688 450.949 260.486L448.163 263.72H452.013V265.358ZM459.657 262.474C459.657 264.462 458.201 265.442 456.493 265.442C454.869 265.442 453.343 264.588 453.315 262.502H455.135C455.163 263.398 455.779 263.804 456.493 263.804C457.277 263.804 457.837 263.314 457.837 262.418C457.837 261.592 457.333 261.046 456.437 261.046H456.171V259.464H456.437C457.319 259.464 457.697 258.918 457.697 258.218C457.697 257.378 457.137 256.944 456.479 256.944C455.793 256.944 455.289 257.392 455.247 258.148H453.427C453.469 256.37 454.799 255.306 456.479 255.306C458.243 255.306 459.517 256.482 459.517 258.162C459.517 259.24 459.027 259.856 458.369 260.206C459.083 260.584 459.657 261.27 459.657 262.474Z" fill="#1F073B"/>
<path d="M487.069 205H485.853V193.608H487.069V205ZM496.417 201.064C496.417 202.328 496.241 203.608 495.457 204.408C495.041 204.824 494.353 205.096 493.537 205.096C492.657 205.096 491.969 204.888 491.313 204.056V205H490.161V193.608H491.313V198.04C491.969 197.224 492.673 197.032 493.537 197.032C494.353 197.032 495.041 197.304 495.457 197.72C496.241 198.504 496.417 199.8 496.417 201.064ZM495.265 201.064C495.265 199.528 495.009 198.056 493.297 198.056C491.569 198.056 491.313 199.528 491.313 201.064C491.313 202.6 491.569 204.072 493.297 204.072C495.009 204.072 495.265 202.6 495.265 201.064ZM504.895 201.064C504.895 202.28 504.735 203.384 503.935 204.2C503.391 204.76 502.639 205.096 501.679 205.096C500.719 205.096 499.967 204.76 499.423 204.2C498.623 203.384 498.463 202.28 498.463 201.064C498.463 199.848 498.623 198.728 499.423 197.928C499.967 197.368 500.719 197.032 501.679 197.032C502.639 197.032 503.391 197.368 503.935 197.928C504.735 198.728 504.895 199.848 504.895 201.064ZM503.743 201.064C503.743 200.168 503.695 199.208 503.119 198.632C502.735 198.248 502.239 198.056 501.679 198.056C501.119 198.056 500.639 198.248 500.255 198.632C499.679 199.208 499.615 200.168 499.615 201.064C499.615 201.944 499.663 202.904 500.255 203.496C500.639 203.88 501.119 204.072 501.679 204.072C502.239 204.072 502.735 203.88 503.119 203.496C503.695 202.904 503.743 201.944 503.743 201.064ZM512.743 197.128L509.847 205H508.823L505.943 197.128H507.191L509.335 203.448L511.495 197.128H512.743ZM520.239 201.368H514.927C514.927 203.096 515.727 204.088 517.247 204.088C518.159 204.088 518.687 203.816 519.311 203.192L520.095 203.88C519.295 204.68 518.543 205.096 517.215 205.096C515.119 205.096 513.775 203.848 513.775 201.064C513.775 198.504 515.007 197.032 517.007 197.032C519.055 197.032 520.239 198.488 520.239 200.856V201.368ZM519.103 200.504C519.055 199.864 519.039 199.608 518.847 199.192C518.511 198.472 517.855 198.008 517.007 198.008C516.159 198.008 515.503 198.472 515.167 199.192C514.975 199.608 514.959 199.864 514.927 200.504H519.103ZM528.372 202.696C528.372 204.216 527.092 205.096 525.172 205.096C523.828 205.096 522.788 204.792 521.94 203.96L522.708 203.192C523.316 203.832 524.18 204.104 525.156 204.104C526.468 204.104 527.252 203.64 527.252 202.712C527.252 202.008 526.868 201.64 525.94 201.56L524.644 201.448C523.108 201.32 522.292 200.648 522.292 199.336C522.292 197.896 523.492 197.032 525.188 197.032C526.324 197.032 527.3 197.304 528.02 197.88L527.268 198.632C526.708 198.2 525.988 198.008 525.172 198.008C524.02 198.008 523.412 198.488 523.412 199.304C523.412 200.008 523.844 200.36 524.82 200.456L526.052 200.568C527.428 200.696 528.372 201.208 528.372 202.696ZM536.885 201.064C536.885 202.328 536.709 203.608 535.925 204.408C535.509 204.824 534.821 205.096 534.005 205.096C533.141 205.096 532.437 204.888 531.781 204.072V208.52H530.629V197.128H531.781V198.056C532.437 197.24 533.125 197.032 534.005 197.032C534.821 197.032 535.509 197.304 535.925 197.72C536.709 198.504 536.885 199.8 536.885 201.064ZM535.733 201.064C535.733 199.528 535.477 198.056 533.765 198.056C532.037 198.056 531.781 199.528 531.781 201.064C531.781 202.6 532.037 204.072 533.765 204.072C535.477 204.072 535.733 202.6 535.733 201.064ZM544.964 205H543.812V204.248C543.188 204.872 542.596 205.096 541.54 205.096C540.452 205.096 539.86 204.904 539.316 204.376C538.916 203.992 538.724 203.4 538.724 202.776C538.724 201.384 539.7 200.504 541.46 200.504H543.812V199.752C543.812 198.616 543.252 198.024 541.796 198.024C540.804 198.024 540.292 198.28 539.812 198.936L539.028 198.216C539.716 197.304 540.516 197.032 541.812 197.032C543.94 197.032 544.964 197.96 544.964 199.656V205ZM543.812 202.216V201.368H541.62C540.436 201.368 539.844 201.832 539.844 202.76C539.844 203.672 540.404 204.104 541.668 204.104C542.324 204.104 542.9 204.04 543.412 203.576C543.684 203.32 543.812 202.872 543.812 202.216Z" fill="#1F073B"/>
<path d="M500.529 47.408V46.184H491.745V47.408H495.453V59H496.821V47.408H500.529ZM508.013 54.572C508.013 53.204 507.833 51.944 506.933 51.044C506.321 50.414 505.475 50.036 504.395 50.036C503.315 50.036 502.469 50.414 501.857 51.044C500.957 51.944 500.777 53.204 500.777 54.572C500.777 55.94 500.957 57.182 501.857 58.1C502.469 58.73 503.315 59.108 504.395 59.108C505.475 59.108 506.321 58.73 506.933 58.1C507.833 57.182 508.013 55.94 508.013 54.572ZM506.717 54.572C506.717 55.562 506.663 56.642 506.015 57.308C505.583 57.74 505.025 57.956 504.395 57.956C503.765 57.956 503.225 57.74 502.793 57.308C502.127 56.642 502.073 55.562 502.073 54.572C502.073 53.564 502.145 52.484 502.793 51.836C503.225 51.404 503.765 51.188 504.395 51.188C505.025 51.188 505.583 51.404 506.015 51.836C506.663 52.484 506.717 53.564 506.717 54.572ZM516.694 50.864C516.064 50.234 515.416 50.036 514.57 50.036C513.544 50.036 512.572 50.486 512.086 51.224V50.144H510.79V59H512.086V53.564C512.086 52.214 512.914 51.188 514.21 51.188C514.894 51.188 515.254 51.35 515.74 51.836L516.694 50.864ZM524.589 54.572C524.589 53.204 524.409 51.944 523.509 51.044C522.897 50.414 522.051 50.036 520.971 50.036C519.891 50.036 519.045 50.414 518.433 51.044C517.533 51.944 517.353 53.204 517.353 54.572C517.353 55.94 517.533 57.182 518.433 58.1C519.045 58.73 519.891 59.108 520.971 59.108C522.051 59.108 522.897 58.73 523.509 58.1C524.409 57.182 524.589 55.94 524.589 54.572ZM523.293 54.572C523.293 55.562 523.239 56.642 522.591 57.308C522.159 57.74 521.601 57.956 520.971 57.956C520.341 57.956 519.801 57.74 519.369 57.308C518.703 56.642 518.649 55.562 518.649 54.572C518.649 53.564 518.721 52.484 519.369 51.836C519.801 51.404 520.341 51.188 520.971 51.188C521.601 51.188 522.159 51.404 522.591 51.836C523.239 52.484 523.293 53.564 523.293 54.572Z" fill="#6131B4"/>
<defs>
<linearGradient id="paint0_linear_1_2107" x1="379.702" y1="101.858" x2="-9.3857" y2="101.858" gradientUnits="userSpaceOnUse">
<stop stop-color="#A6ABB1"/>
<stop offset="1" stop-color="#D2D5D8" stop-opacity="0"/>
</linearGradient>
</defs>
</svg>
