<svg width="25" height="25" viewBox="0 0 25 25" fill="none" xmlns="http://www.w3.org/2000/svg">
<path d="M3.64368 20.2571H21.7428" stroke="#1F073B" stroke-width="0.908961" stroke-linecap="round" stroke-linejoin="round"/>
<path d="M4.87781 20.258V9.08574L8.99123 6.38898V20.258" stroke="#1F073B" stroke-width="0.908961" stroke-linecap="round" stroke-linejoin="round"/>
<path d="M18.0409 20.2572V12.1669L13.9275 9.47015" stroke="#1F073B" stroke-width="0.908961" stroke-linecap="round" stroke-linejoin="round"/>
<path d="M7.75659 5.61773V4.07672H13.9267V20.2573" stroke="#1F073B" stroke-width="0.908961" stroke-linecap="round" stroke-linejoin="round"/>
<path d="M16.3947 9.47002V7.92902H20.5081V20.2571" stroke="#1F073B" stroke-width="0.908961" stroke-linecap="round" stroke-linejoin="round"/>
<path d="M4.87781 10.6268H6.52318" stroke="#1F073B" stroke-width="0.908961" stroke-linecap="round" stroke-linejoin="round"/>
<path d="M4.87781 12.5524H6.52318" stroke="#1F073B" stroke-width="0.908961" stroke-linecap="round" stroke-linejoin="round"/>
<path d="M4.87781 14.4781H6.52318" stroke="#1F073B" stroke-width="0.908961" stroke-linecap="round" stroke-linejoin="round"/>
<path d="M4.87781 16.4048H6.52318" stroke="#1F073B" stroke-width="0.908961" stroke-linecap="round" stroke-linejoin="round"/>
<path d="M4.87781 18.3314H6.52318" stroke="#1F073B" stroke-width="0.908961" stroke-linecap="round" stroke-linejoin="round"/>
<path d="M11.0482 10.2402H11.8709" stroke="#1F073B" stroke-width="0.908961" stroke-linecap="round" stroke-linejoin="round"/>
<path d="M11.0482 12.1669H11.8709" stroke="#1F073B" stroke-width="0.908961" stroke-linecap="round" stroke-linejoin="round"/>
<path d="M11.0482 6.38898H11.8709" stroke="#1F073B" stroke-width="0.908961" stroke-linecap="round" stroke-linejoin="round"/>
<path d="M11.0482 8.31458H11.8709" stroke="#1F073B" stroke-width="0.908961" stroke-linecap="round" stroke-linejoin="round"/>
<path d="M11.0482 14.0936H11.8709" stroke="#1F073B" stroke-width="0.908961" stroke-linecap="round" stroke-linejoin="round"/>
<path d="M11.0482 16.0192H11.8709" stroke="#1F073B" stroke-width="0.908961" stroke-linecap="round" stroke-linejoin="round"/>
<path d="M11.0482 17.9459H11.8709" stroke="#1F073B" stroke-width="0.908961" stroke-linecap="round" stroke-linejoin="round"/>
<path d="M15.7784 12.937H16.1903" stroke="#1F073B" stroke-width="0.908961" stroke-linecap="round" stroke-linejoin="round"/>
<path d="M15.7784 14.8636H16.1903" stroke="#1F073B" stroke-width="0.908961" stroke-linecap="round" stroke-linejoin="round"/>
<path d="M15.7784 16.7903H16.1903" stroke="#1F073B" stroke-width="0.908961" stroke-linecap="round" stroke-linejoin="round"/>
<path d="M15.7784 18.7159H16.1903" stroke="#1F073B" stroke-width="0.908961" stroke-linecap="round" stroke-linejoin="round"/>
<path d="M17.6293 4.07672V7.92923" stroke="#1F073B" stroke-width="0.908961" stroke-linecap="round" stroke-linejoin="round"/>
<path d="M19.2745 6.38898V7.92998" stroke="#1F073B" stroke-width="0.908961" stroke-linecap="round" stroke-linejoin="round"/>
</svg>
