<svg width="25" height="25" viewBox="0 0 25 25" fill="none" xmlns="http://www.w3.org/2000/svg">
<path fill-rule="evenodd" clip-rule="evenodd" d="M6.0929 4.16799C6.0929 3.83662 6.36152 3.56799 6.6929 3.56799H14.6929C14.852 3.56799 15.0046 3.63121 15.1172 3.74373L19.6172 8.24373C19.7297 8.35625 19.7929 8.50886 19.7929 8.66799V20.668C19.7929 20.9994 19.5243 21.268 19.1929 21.268H6.6929C6.36152 21.268 6.0929 20.9994 6.0929 20.668V4.16799ZM7.2929 4.76799V20.068H18.5929V8.91652L14.4444 4.76799H7.2929Z" fill="#1F073B"/>
<path fill-rule="evenodd" clip-rule="evenodd" d="M8.5929 9.16799C8.5929 8.83662 8.86152 8.56799 9.1929 8.56799H12.6929C13.0243 8.56799 13.2929 8.83662 13.2929 9.16799C13.2929 9.49936 13.0243 9.76799 12.6929 9.76799H9.1929C8.86152 9.76799 8.5929 9.49936 8.5929 9.16799Z" fill="#1F073B"/>
<path fill-rule="evenodd" clip-rule="evenodd" d="M14.6929 3.56799C15.0243 3.56799 15.2929 3.83662 15.2929 4.16799V8.06799H19.1929C19.5243 8.06799 19.7929 8.33662 19.7929 8.66799C19.7929 8.99936 19.5243 9.26799 19.1929 9.26799H14.6929C14.3615 9.26799 14.0929 8.99936 14.0929 8.66799V4.16799C14.0929 3.83662 14.3615 3.56799 14.6929 3.56799Z" fill="#1F073B"/>
<path fill-rule="evenodd" clip-rule="evenodd" d="M8.5929 12.168C8.5929 11.8366 8.86152 11.568 9.1929 11.568H16.6929C17.0243 11.568 17.2929 11.8366 17.2929 12.168C17.2929 12.4994 17.0243 12.768 16.6929 12.768H9.1929C8.86152 12.768 8.5929 12.4994 8.5929 12.168Z" fill="#1F073B"/>
<path fill-rule="evenodd" clip-rule="evenodd" d="M8.5929 15.168C8.5929 14.8366 8.86152 14.568 9.1929 14.568H16.6929C17.0243 14.568 17.2929 14.8366 17.2929 15.168C17.2929 15.4994 17.0243 15.768 16.6929 15.768H9.1929C8.86152 15.768 8.5929 15.4994 8.5929 15.168Z" fill="#1F073B"/>
</svg>
