<svg width="25" height="25" viewBox="0 0 25 25" fill="none" xmlns="http://www.w3.org/2000/svg">
<path d="M4.87413 5.65265C3.87003 5.8492 3.52393 6.69093 3.57521 7.72067C3.7803 11.7243 9.57417 14.4845 9.5699 18.2915C9.5699 19.3212 8.85207 20.3125 7.84797 20.5091C6.84387 20.7056 5.99786 19.9664 5.93377 19.0008C5.89532 18.5308 6.03632 17.9069 6.03632 17.9069L8.51025 17.4284" stroke="#1F073B" stroke-width="0.854554" stroke-miterlimit="10"/>
<path d="M17.3377 12.8951C18.0598 13.7966 19.1408 15.3049 19.0297 16.4543C18.9315 17.4798 18.3119 18.4753 17.3078 18.6719L7.8479 20.5049" stroke="#1F073B" stroke-width="0.854554" stroke-miterlimit="10"/>
<path d="M13.4968 6.54993C13.6891 7.70785 14.3514 8.7974 15.1547 9.85705" stroke="#1F073B" stroke-width="0.854554" stroke-miterlimit="10"/>
<path d="M12.1209 9.37439L7.4209 10.2845" stroke="#1F073B" stroke-width="0.854554" stroke-miterlimit="10" stroke-linecap="round"/>
<path d="M13.4027 10.7115L8.70264 11.6216" stroke="#1F073B" stroke-width="0.854554" stroke-miterlimit="10" stroke-linecap="round"/>
<path d="M12.1169 12.4336L9.98047 12.8481" stroke="#1F073B" stroke-width="0.854554" stroke-miterlimit="10" stroke-linecap="round"/>
<path d="M14.3339 3.8197L4.87402 5.65272C5.5833 5.51599 6.24131 5.91763 6.57031 6.456C6.83949 6.89182 6.85231 7.44728 6.76686 7.78056C6.75831 7.81901 6.78822 7.85747 6.83095 7.84892L16.0345 6.05863C16.2866 5.47327 16.2396 4.78535 15.8849 4.38798C15.5218 3.97352 14.9492 3.70434 14.3339 3.82398V3.8197Z" stroke="#1F073B" stroke-width="0.854554" stroke-miterlimit="10"/>
<path d="M21.2348 7.39599C21.6834 7.84463 21.7603 8.26763 21.7262 8.50264L15.9836 14.241C14.9453 15.2792 13.4028 15.1895 13.4028 15.1895C13.4028 15.1895 13.3131 13.647 14.3556 12.6088L20.0982 6.87044C20.3332 6.84053 20.7562 6.91317 21.2049 7.36181L21.2348 7.39172V7.39599Z" stroke="#1F073B" stroke-width="0.854554" stroke-miterlimit="10"/>
<path d="M19.1794 7.75922L20.8116 9.39141" stroke="#1F073B" stroke-width="0.854554" stroke-miterlimit="10"/>
</svg>
