<svg width="25" height="25" viewBox="0 0 25 25" fill="none" xmlns="http://www.w3.org/2000/svg">
<path fill-rule="evenodd" clip-rule="evenodd" d="M9.95178 13.6701C8.39875 12.7378 7.3595 11.0373 7.3595 9.09408C7.3595 6.14856 9.74731 3.76074 12.6928 3.76074C15.6383 3.76074 18.0262 6.14856 18.0262 9.09408C18.0262 11.0373 16.9869 12.7378 15.4338 13.6701C18.2766 14.7698 20.2928 17.5298 20.2928 20.7608C20.2928 21.0921 20.0241 21.3608 19.6928 21.3608C19.3614 21.3608 19.0928 21.0921 19.0928 20.7608C19.0928 17.4375 16.5598 14.7058 13.3191 14.391C13.1137 14.4151 12.9047 14.4274 12.6928 14.4274C12.4809 14.4274 12.2719 14.4151 12.0665 14.391C8.82579 14.7058 6.29277 17.4375 6.29277 20.7608C6.29277 21.0921 6.02414 21.3608 5.69277 21.3608C5.3614 21.3608 5.09277 21.0921 5.09277 20.7608C5.09277 17.5298 7.10894 14.7697 9.95178 13.6701ZM12.0925 13.1841C12.2905 13.1687 12.4907 13.1608 12.6928 13.1608C12.8948 13.1608 13.0951 13.1687 13.2931 13.1841C15.2914 12.8934 16.8262 11.173 16.8262 9.09408C16.8262 6.8113 14.9756 4.96074 12.6928 4.96074C10.4101 4.96074 8.5595 6.8113 8.5595 9.09408C8.5595 11.1729 10.0942 12.8934 12.0925 13.1841Z" fill="#1F073B"/>
</svg>
