<svg width="25" height="25" viewBox="0 0 25 25" fill="none" xmlns="http://www.w3.org/2000/svg">
<g clip-path="url(#clip0_1_2327)">
<path d="M13.1516 3.29706C8.25402 3.29706 4.28052 7.27059 4.28052 12.1681C4.28052 17.0657 8.25402 21.0392 13.1516 21.0392C18.0491 21.0392 22.0227 17.0657 22.0227 12.1681C22.0227 7.27056 18.0491 3.29706 13.1516 3.29706ZM19.5538 17.2294C18.7552 16.7665 17.8548 16.4273 16.9585 16.1915C17.2286 15.0644 17.3824 13.818 17.4062 12.523H21.3051C21.2305 14.2359 20.6172 15.8853 19.5538 17.2294ZM6.74941 17.2294C5.68605 15.8853 5.0727 14.2359 4.99805 12.523H8.89703C8.9208 13.818 9.07455 15.0644 9.34473 16.1915C8.4418 16.4334 7.56452 16.7564 6.74941 17.2294ZM6.74937 7.1069C7.54518 7.56735 8.43786 7.90601 9.34473 8.14485C9.07452 9.27184 8.9208 10.5183 8.89703 11.8133H4.99805C5.0727 10.1003 5.68605 8.45101 6.74937 7.1069ZM13.5064 15.7209V12.523H16.6964C16.6728 13.7649 16.5258 14.9563 16.2682 16.0293C15.4251 15.8536 14.4872 15.7427 13.5064 15.7209ZM10.035 16.0293C9.77736 14.9564 9.63031 13.7649 9.60678 12.523H12.7968V15.7209C11.8278 15.7425 10.896 15.8502 10.035 16.0293ZM12.7968 8.61541V11.8133H9.60678C9.63031 10.5714 9.77736 9.37996 10.035 8.30702C10.8991 8.486 11.82 8.59362 12.7968 8.61541ZM13.5064 11.8133V8.61541C14.4604 8.59412 15.3875 8.48973 16.2682 8.30702C16.5259 9.37996 16.6728 10.5714 16.6964 11.8133H13.5064ZM13.5064 7.90555V4.0517C14.2686 4.24197 15.0121 5.0354 15.589 6.2941C15.7764 6.70295 15.9416 7.14789 16.0836 7.62142C15.2341 7.79466 14.3627 7.88628 13.5064 7.90555ZM12.7968 4.0517V7.90555C11.9222 7.88585 11.0506 7.79104 10.2196 7.62142C10.3616 7.14789 10.5268 6.70295 10.7141 6.2941C11.291 5.03536 12.0345 4.24193 12.7968 4.0517ZM12.7968 16.4307V20.2846C12.0345 20.0943 11.291 19.3009 10.7141 18.0422C10.5268 17.6333 10.3616 17.1884 10.2196 16.7148C11.0556 16.5451 11.9178 16.4505 12.7968 16.4307ZM13.5064 20.2846V16.4307C14.4264 16.4514 15.2817 16.5519 16.0836 16.7148C15.9416 17.1884 15.7765 17.6333 15.589 18.0422C15.0121 19.3009 14.2686 20.0943 13.5064 20.2846ZM17.4062 11.8133C17.3824 10.5183 17.2286 9.27184 16.9585 8.14485C17.8565 7.90714 18.7537 7.571 19.5538 7.1069C20.6172 8.45101 21.2305 10.1003 21.3051 11.8133H17.4062ZM19.0798 6.55952C18.3654 6.95776 17.5763 7.24966 16.7757 7.46047C16.4436 6.33774 15.905 5.08973 15.0963 4.24193C16.6083 4.6126 17.993 5.41089 19.0798 6.55952ZM11.2068 4.24193C10.3981 5.08973 9.85954 6.33778 9.52744 7.46047C8.73082 7.25083 7.94321 6.96017 7.22334 6.55952C8.31022 5.41089 9.69482 4.6126 11.2068 4.24193ZM7.22337 17.7768C7.94811 17.3741 8.73174 17.0843 9.52748 16.8758C9.85957 17.9984 10.3981 19.2466 11.2068 20.0943C9.69479 19.7237 8.31022 18.9254 7.22337 17.7768ZM15.0963 20.0943C15.9041 19.2476 16.443 18.0007 16.7758 16.8758C17.5625 17.0823 18.3577 17.3747 19.0799 17.7768C17.993 18.9254 16.6084 19.7237 15.0963 20.0943Z" fill="#1F073B"/>
</g>
<defs>
<clipPath id="clip0_1_2327">
<rect width="18.168" height="18.168" fill="white" transform="translate(4.06763 3.08472)"/>
</clipPath>
</defs>
</svg>
